<svg xmlns="http://www.w3.org/2000/svg" width="383.017" height="396.58" viewBox="0 0 383.017 396.58">
  <g id="Fingerprint-bro" transform="translate(-41.535 -30.86)" opacity="0.81">
    <g id="freepik--Graphics--inject-2" transform="translate(41.535 30.86)">
      <path id="Line_3" data-name="Line 3" d="M-.026,6.824A.527.527,0,0,1-.554,6.3V-.026A.527.527,0,0,1-.026-.554.527.527,0,0,1,.5-.026V6.3A.527.527,0,0,1-.026,6.824Z" transform="translate(199.444 72.506)" fill="#263238"/>
      <path id="Line_4" data-name="Line 4" d="M-.026,7.325A.527.527,0,0,1-.554,6.8V-.026A.527.527,0,0,1-.026-.554.527.527,0,0,1,.5-.026V6.8A.527.527,0,0,1-.026,7.325Z" transform="translate(199.444 85.658)" fill="#263238"/>
      <path id="Line_5" data-name="Line 5" d="M-.026,6.824A.527.527,0,0,1-.554,6.3V-.026A.527.527,0,0,1-.026-.554.527.527,0,0,1,.5-.026V6.3A.527.527,0,0,1-.026,6.824Z" transform="translate(199.444 99.304)" fill="#263238"/>
      <path id="Line_6" data-name="Line 6" d="M6.3.5H-.026A.527.527,0,0,1-.554-.026.527.527,0,0,1-.026-.554H6.3a.527.527,0,0,1,.527.527A.527.527,0,0,1,6.3.5Z" transform="translate(294.036 179.555)" fill="#9f946d"/>
      <path id="Line_7" data-name="Line 7" d="M10.382.5H3.558a.527.527,0,0,1-.527-.527.527.527,0,0,1,.527-.527h6.824a.527.527,0,0,1,.527.527A.527.527,0,0,1,10.382.5Z" transform="translate(276.8 179.555)" fill="#9f946d"/>
      <path id="Line_8" data-name="Line 8" d="M6.3.5H-.026A.527.527,0,0,1-.554-.026.527.527,0,0,1-.026-.554H6.3a.527.527,0,0,1,.527.527A.527.527,0,0,1,6.3.5Z" transform="translate(267.239 179.555)" fill="#9f946d"/>
      <path id="Line_9" data-name="Line 9" d="M6.306.5H-.026A.527.527,0,0,1-.554-.026.527.527,0,0,1-.026-.554H6.306a.527.527,0,0,1,.527.527A.527.527,0,0,1,6.306.5Z" transform="translate(125.326 179.555)" fill="#9f946d"/>
      <path id="Line_10" data-name="Line 10" d="M10.382.5H3.558a.527.527,0,0,1-.527-.527.527.527,0,0,1,.527-.527h6.824a.527.527,0,0,1,.527.527A.527.527,0,0,1,10.382.5Z" transform="translate(108.099 179.555)" fill="#9f946d"/>
      <path id="Line_11" data-name="Line 11" d="M6.306.5H-.026A.527.527,0,0,1-.554-.026.527.527,0,0,1-.026-.554H6.306a.527.527,0,0,1,.527.527A.527.527,0,0,1,6.306.5Z" transform="translate(98.528 179.555)" fill="#9f946d"/>
      <path id="Path_396" data-name="Path 396" d="M434,241.817a1.667,1.667,0,0,1,3.333,0v3.638a1.667,1.667,0,1,1-3.333,0Zm1.1,3.7c0,.5.219.686.571.686s.562-.19.562-.686v-3.809c0-.5-.219-.686-.562-.686s-.571.19-.571.686Z" transform="translate(-60.253 -40.842)" fill="#9f946d"/>
      <path id="Path_397" data-name="Path 397" d="M434.82,251.5a1.086,1.086,0,0,0,1.2-.876h.743v7.028h-1.1v-5.323h-.848Z" transform="translate(-60.293 -41.341)" fill="#9f946d"/>
      <path id="Path_398" data-name="Path 398" d="M434,262.767a1.667,1.667,0,0,1,3.333,0v3.628a1.667,1.667,0,1,1-3.333,0Zm1.1,3.7c0,.5.219.686.571.686s.562-.19.562-.686v-3.809c0-.5-.219-.686-.562-.686s-.571.181-.571.686Z" transform="translate(-60.253 -41.841)" fill="#9f946d"/>
      <path id="Path_399" data-name="Path 399" d="M434.82,272.446a1.086,1.086,0,0,0,1.2-.876h.743v6.971h-1.1v-5.323h-.848Z" transform="translate(-60.293 -42.341)" fill="#9f946d"/>
      <path id="Path_400" data-name="Path 400" d="M434,283.717a1.667,1.667,0,0,1,3.333,0v3.628a1.667,1.667,0,1,1-3.333,0Zm1.1,3.695c0,.5.219.686.571.686s.562-.181.562-.686V283.6c0-.5-.219-.686-.562-.686s-.571.19-.571.686Z" transform="translate(-60.253 -42.84)" fill="#9f946d"/>
      <path id="Path_401" data-name="Path 401" d="M434.82,293.386a1.086,1.086,0,0,0,1.2-.876h.743v6.98h-1.1v-5.323h-.848Z" transform="translate(-60.293 -43.339)" fill="#9f946d"/>
      <path id="Path_402" data-name="Path 402" d="M434,304.657a1.667,1.667,0,0,1,3.333,0v3.638a1.667,1.667,0,1,1-3.333,0Zm1.1,3.7c0,.5.219.686.571.686s.562-.19.562-.686v-3.809c0-.5-.219-.686-.562-.686s-.571.19-.571.686Z" transform="translate(-60.253 -43.839)" fill="#9f946d"/>
      <path id="Path_403" data-name="Path 403" d="M434,315.137a1.667,1.667,0,0,1,3.333,0v3.6a1.667,1.667,0,1,1-3.333,0Zm1.1,3.695c0,.5.219.686.571.686s.562-.181.562-.686v-3.809c0-.5-.219-.7-.562-.7s-.571.19-.571.7Z" transform="translate(-60.253 -44.339)" fill="#9f946d"/>
      <path id="Path_404" data-name="Path 404" d="M434,325.607a1.667,1.667,0,0,1,3.333,0v3.628a1.667,1.667,0,1,1-3.333,0Zm1.1,3.7c0,.5.219.686.571.686s.562-.19.562-.686V325.5c0-.5-.219-.686-.562-.686s-.571.19-.571.686Z" transform="translate(-60.253 -44.838)" fill="#9f946d"/>
      <path id="Path_405" data-name="Path 405" d="M434.82,345.756a1.086,1.086,0,0,0,1.2-.876h.743v6.98h-1.1v-5.323h-.848Z" transform="translate(-60.293 -45.837)" fill="#9f946d"/>
      <path id="Path_406" data-name="Path 406" d="M434.82,356.236a1.076,1.076,0,0,0,1.2-.886h.743v6.98h-1.1v-5.323h-.848Z" transform="translate(-60.293 -46.336)" fill="#9f946d"/>
      <path id="Path_407" data-name="Path 407" d="M434.82,366.706a1.086,1.086,0,0,0,1.2-.876h.743V372.8h-1.1v-5.314h-.848Z" transform="translate(-60.293 -46.836)" fill="#9f946d"/>
      <path id="Path_408" data-name="Path 408" d="M434,377.977a1.667,1.667,0,0,1,3.333,0V381.6a1.667,1.667,0,1,1-3.333,0Zm1.1,3.695c0,.5.219.686.571.686s.562-.181.562-.686v-3.752c0-.5-.219-.7-.562-.7s-.571.19-.571.7Z" transform="translate(-60.253 -47.336)" fill="#9f946d"/>
      <path id="Path_409" data-name="Path 409" d="M434,388.447a1.667,1.667,0,0,1,3.333,0v3.628a1.667,1.667,0,1,1-3.333,0Zm1.1,3.7c0,.5.219.686.571.686s.562-.19.562-.686v-3.809c0-.5-.219-.686-.562-.686s-.571.19-.571.686Z" transform="translate(-60.253 -47.835)" fill="#9f946d"/>
      <path id="Path_410" data-name="Path 410" d="M434.82,398.126a1.086,1.086,0,0,0,1.2-.876h.743v6.971h-1.1v-5.3h-.848Z" transform="translate(-60.293 -48.335)" fill="#9f946d"/>
      <path id="Path_411" data-name="Path 411" d="M441,230.546a1.1,1.1,0,0,0,1.209-.876h.733v6.98h-1.1v-5.323H441Z" transform="translate(-60.587 -40.342)" fill="#9f946d"/>
      <path id="Path_412" data-name="Path 412" d="M441,241.026a1.1,1.1,0,0,0,1.209-.876h.733v6.971h-1.1V241.8H441Z" transform="translate(-60.587 -40.842)" fill="#9f946d"/>
      <path id="Path_413" data-name="Path 413" d="M440.24,262.76a1.667,1.667,0,1,1,3.324,0v3.628a1.667,1.667,0,1,1-3.323,0Zm1.1,3.7c0,.5.219.686.562.686s.571-.19.571-.686v-3.809c0-.5-.219-.686-.571-.686s-.562.181-.562.686Z" transform="translate(-60.551 -41.835)" fill="#9f946d"/>
      <path id="Path_414" data-name="Path 414" d="M441,293.386a1.1,1.1,0,0,0,1.209-.876h.733v6.98h-1.1v-5.323H441Z" transform="translate(-60.587 -43.339)" fill="#9f946d"/>
      <path id="Path_415" data-name="Path 415" d="M440.24,304.65a1.667,1.667,0,1,1,3.324,0v3.638a1.667,1.667,0,1,1-3.323,0Zm1.1,3.7c0,.5.219.686.562.686s.571-.19.571-.686v-3.809c0-.5-.219-.686-.571-.686s-.562.19-.562.686Z" transform="translate(-60.551 -43.833)" fill="#9f946d"/>
      <path id="Path_416" data-name="Path 416" d="M441,314.336a1.1,1.1,0,0,0,1.209-.876h.733v6.98h-1.1v-5.323H441Z" transform="translate(-60.587 -44.339)" fill="#9f946d"/>
      <path id="Path_417" data-name="Path 417" d="M441,324.806a1.086,1.086,0,0,0,1.209-.876h.733v6.98h-1.1v-5.323H441Z" transform="translate(-60.587 -44.838)" fill="#9f946d"/>
      <path id="Path_418" data-name="Path 418" d="M441,335.286a1.1,1.1,0,0,0,1.209-.876h.733v6.971h-1.1v-5.323H441Z" transform="translate(-60.587 -45.338)" fill="#9f946d"/>
      <path id="Path_419" data-name="Path 419" d="M440.24,346.55a1.667,1.667,0,1,1,3.324,0v3.628a1.667,1.667,0,1,1-3.323,0Zm1.1,3.695c0,.5.219.686.562.686s.571-.181.571-.686v-3.762c0-.5-.219-.7-.571-.7s-.562.19-.562.7Z" transform="translate(-60.551 -45.831)" fill="#9f946d"/>
      <path id="Path_420" data-name="Path 420" d="M440.24,357.02a1.667,1.667,0,1,1,3.324,0v3.628a1.667,1.667,0,1,1-3.323,0Zm1.1,3.7c0,.5.219.686.562.686s.571-.19.571-.686v-3.809c0-.5-.219-.686-.571-.686s-.562.19-.562.686Z" transform="translate(-60.551 -46.331)" fill="#9f946d"/>
      <path id="Path_421" data-name="Path 421" d="M428.59,293.386a1.1,1.1,0,0,0,1.209-.876h.733v6.98h-1.1v-5.323h-.848Z" transform="translate(-59.995 -43.339)" fill="#9f946d"/>
      <path id="Path_422" data-name="Path 422" d="M427.78,304.657a1.667,1.667,0,0,1,3.333,0v3.638a1.667,1.667,0,1,1-3.333,0Zm1.1,3.7c0,.5.219.686.571.686s.571-.19.571-.686v-3.809c0-.5-.219-.686-.571-.686s-.571.19-.571.686Z" transform="translate(-59.957 -43.839)" fill="#9f946d"/>
      <path id="Path_423" data-name="Path 423" d="M427.78,315.137a1.667,1.667,0,0,1,3.333,0v3.6a1.667,1.667,0,1,1-3.333,0Zm1.1,3.695c0,.5.219.686.571.686s.571-.181.571-.686v-3.809c0-.5-.219-.7-.571-.7s-.571.19-.571.7Z" transform="translate(-59.957 -44.339)" fill="#9f946d"/>
      <path id="Path_424" data-name="Path 424" d="M428.59,324.806a1.086,1.086,0,0,0,1.209-.876h.733v6.98h-1.1v-5.323h-.848Z" transform="translate(-59.995 -44.838)" fill="#9f946d"/>
      <path id="Path_425" data-name="Path 425" d="M428.59,345.756a1.1,1.1,0,0,0,1.209-.876h.733v6.98h-1.1v-5.323h-.848Z" transform="translate(-59.995 -45.837)" fill="#9f946d"/>
      <path id="Path_426" data-name="Path 426" d="M428.59,356.236a1.1,1.1,0,0,0,1.209-.886h.733v6.98h-1.1v-5.323h-.848Z" transform="translate(-59.995 -46.336)" fill="#9f946d"/>
      <path id="Path_427" data-name="Path 427" d="M428.59,366.706a1.1,1.1,0,0,0,1.209-.876h.733V372.8h-1.1v-5.314h-.848Z" transform="translate(-59.995 -46.836)" fill="#9f946d"/>
      <path id="Path_428" data-name="Path 428" d="M421.56,262.76a1.667,1.667,0,1,1,3.324,0v3.628a1.667,1.667,0,1,1-3.323,0Zm1.1,3.7c0,.5.219.686.562.686s.571-.19.571-.686v-3.809c0-.5-.219-.686-.571-.686s-.562.181-.562.686Z" transform="translate(-59.66 -41.835)" fill="#9f946d"/>
      <path id="Path_429" data-name="Path 429" d="M421.56,283.71a1.667,1.667,0,1,1,3.324,0v3.628a1.667,1.667,0,1,1-3.323,0Zm1.1,3.695c0,.5.219.686.562.686s.571-.181.571-.686V283.6c0-.5-.219-.686-.571-.686s-.562.19-.562.686Z" transform="translate(-59.66 -42.834)" fill="#9f946d"/>
      <path id="Path_430" data-name="Path 430" d="M422.36,314.336a1.1,1.1,0,0,0,1.209-.876h.733v6.98h-1.1v-5.323h-.848Z" transform="translate(-59.698 -44.339)" fill="#9f946d"/>
      <path id="Path_431" data-name="Path 431" d="M422.36,324.806a1.086,1.086,0,0,0,1.209-.876h.733v6.98h-1.1v-5.323h-.848Z" transform="translate(-59.698 -44.838)" fill="#9f946d"/>
      <path id="Path_432" data-name="Path 432" d="M422.36,356.236a1.1,1.1,0,0,0,1.209-.886h.733v6.98h-1.1v-5.323h-.848Z" transform="translate(-59.698 -46.336)" fill="#9f946d"/>
      <path id="Path_433" data-name="Path 433" d="M421.56,367.5a1.667,1.667,0,1,1,3.324,0v3.628a1.667,1.667,0,1,1-3.323,0Zm1.1,3.695c0,.5.219.686.562.686s.571-.19.571-.686v-3.809c0-.5-.219-.686-.571-.686s-.562.19-.562.686Z" transform="translate(-59.66 -46.83)" fill="#9f946d"/>
      <path id="Path_434" data-name="Path 434" d="M422.36,377.176a1.1,1.1,0,0,0,1.209-.876h.733v6.98h-1.1v-5.361h-.848Z" transform="translate(-59.698 -47.336)" fill="#9f946d"/>
      <path id="Path_435" data-name="Path 435" d="M163.73,273.917a1.667,1.667,0,0,1,3.333,0v3.628a1.667,1.667,0,1,1-3.333,0Zm1.1,3.695c0,.5.219.7.571.7s.562-.19.562-.7V273.8c0-.5-.219-.7-.562-.7s-.571.19-.571.7Z" transform="translate(-47.363 -42.373)" fill="#9f946d"/>
      <path id="Path_436" data-name="Path 436" d="M163.73,284.417a1.667,1.667,0,0,1,3.333,0v3.628a1.667,1.667,0,1,1-3.333,0Zm1.1,3.7c0,.5.219.686.571.686s.562-.19.562-.686v-3.809c0-.5-.219-.686-.562-.686s-.571.19-.571.686Z" transform="translate(-47.363 -42.874)" fill="#9f946d"/>
      <path id="Path_437" data-name="Path 437" d="M164.54,294.1a1.086,1.086,0,0,0,1.2-.876h.743v6.98h-1.1v-5.285h-.848Z" transform="translate(-47.402 -43.373)" fill="#9f946d"/>
      <path id="Path_438" data-name="Path 438" d="M163.73,305.367a1.667,1.667,0,0,1,3.333,0v3.628a1.667,1.667,0,1,1-3.333,0Zm1.1,3.695c0,.5.219.7.571.7s.562-.19.562-.7V305.3c0-.5-.219-.7-.562-.7s-.571.19-.571.7Z" transform="translate(-47.363 -43.873)" fill="#9f946d"/>
      <path id="Path_439" data-name="Path 439" d="M164.54,315.046a1.086,1.086,0,0,0,1.2-.876h.743v6.971h-1.1v-5.323h-.848Z" transform="translate(-47.402 -44.372)" fill="#9f946d"/>
      <path id="Path_440" data-name="Path 440" d="M163.73,326.317a1.667,1.667,0,0,1,3.333,0v3.628a1.667,1.667,0,1,1-3.333,0Zm1.1,3.695c0,.5.219.686.571.686s.562-.19.562-.686V326.2c0-.5-.219-.686-.562-.686s-.571.19-.571.686Z" transform="translate(-47.363 -44.872)" fill="#9f946d"/>
      <path id="Path_441" data-name="Path 441" d="M164.54,335.956a1.086,1.086,0,0,0,1.2-.876h.743v6.98h-1.1v-5.323h-.848Z" transform="translate(-47.402 -45.37)" fill="#9f946d"/>
      <path id="Path_442" data-name="Path 442" d="M163.73,347.257a1.667,1.667,0,0,1,3.333,0v3.628a1.667,1.667,0,1,1-3.333,0Zm1.1,3.7c0,.5.219.686.571.686s.562-.19.562-.686v-3.809c0-.5-.219-.686-.562-.686s-.571.19-.571.686Z" transform="translate(-47.363 -45.871)" fill="#9f946d"/>
      <path id="Path_443" data-name="Path 443" d="M163.73,357.737a1.667,1.667,0,0,1,3.333,0v3.628a1.667,1.667,0,1,1-3.333,0Zm1.1,3.695c0,.5.219.686.571.686s.562-.19.562-.686v-3.809c0-.5-.219-.686-.562-.686s-.571.19-.571.686Z" transform="translate(-47.363 -46.371)" fill="#9f946d"/>
      <path id="Path_444" data-name="Path 444" d="M163.73,368.207a1.667,1.667,0,0,1,3.333,0v3.628a1.667,1.667,0,1,1-3.333,0Zm1.1,3.695c0,.5.219.7.571.7s.562-.19.562-.7V368.14c0-.5-.219-.686-.562-.686s-.571.181-.571.686Z" transform="translate(-47.363 -46.87)" fill="#9f946d"/>
      <path id="Path_445" data-name="Path 445" d="M164.54,377.886a1.086,1.086,0,0,0,1.2-.876h.743v6.971h-1.1v-5.323h-.848Z" transform="translate(-47.402 -47.369)" fill="#9f946d"/>
      <path id="Path_446" data-name="Path 446" d="M164.54,388.356a1.086,1.086,0,0,0,1.2-.876h.743v6.98h-1.1v-5.323h-.848Z" transform="translate(-47.402 -47.869)" fill="#9f946d"/>
      <path id="Path_447" data-name="Path 447" d="M164.54,398.826a1.086,1.086,0,0,0,1.2-.876h.743v6.98h-1.1v-5.323h-.848Z" transform="translate(-47.402 -48.368)" fill="#9f946d"/>
      <path id="Path_448" data-name="Path 448" d="M164.54,409.306a1.086,1.086,0,0,0,1.2-.876h.743V415.4h-1.1v-5.323h-.848Z" transform="translate(-47.402 -48.868)" fill="#9f946d"/>
      <path id="Path_449" data-name="Path 449" d="M164.88,424.315c0,.5.219.686.571.686s.562-.181.562-.686v-3.809c0-.5-.219-.686-.562-.686s-.571.19-.571.686Z" transform="translate(-47.418 -49.411)" fill="#9f946d"/>
      <path id="Path_450" data-name="Path 450" d="M170.76,315.046a1.1,1.1,0,0,0,1.209-.876h.733v6.971h-1.1v-5.323h-.848Z" transform="translate(-47.698 -44.372)" fill="#9f946d"/>
      <path id="Path_451" data-name="Path 451" d="M170.76,325.516a1.1,1.1,0,0,0,1.209-.876h.733v7.009h-1.1v-5.323h-.848Z" transform="translate(-47.698 -44.872)" fill="#9f946d"/>
      <path id="Path_452" data-name="Path 452" d="M170,347.25a1.667,1.667,0,1,1,3.324,0v3.628a1.667,1.667,0,1,1-3.324,0Zm1.1,3.7c0,.5.219.686.562.686s.571-.19.571-.686v-3.809c0-.5-.219-.686-.571-.686s-.562.19-.562.686Z" transform="translate(-47.662 -45.865)" fill="#9f946d"/>
      <path id="Path_453" data-name="Path 453" d="M170.76,356.956a1.1,1.1,0,0,0,1.209-.876h.733v6.98h-1.1v-5.342h-.848Z" transform="translate(-47.698 -46.371)" fill="#9f946d"/>
      <path id="Path_454" data-name="Path 454" d="M170,368.2a1.667,1.667,0,1,1,3.324,0v3.628a1.667,1.667,0,1,1-3.324,0Zm1.1,3.695c0,.5.219.7.562.7s.571-.19.571-.7v-3.762c0-.5-.219-.686-.571-.686s-.562.181-.562.686Z" transform="translate(-47.662 -46.864)" fill="#9f946d"/>
      <path id="Path_455" data-name="Path 455" d="M171.11,392.895c0,.5.219.686.562.686s.571-.19.571-.686v-3.809c0-.5-.219-.686-.571-.686s-.562.19-.562.686Z" transform="translate(-47.715 -47.913)" fill="#9f946d"/>
      <path id="Path_456" data-name="Path 456" d="M170.759,398.828a1.1,1.1,0,0,0,1.181-.828h.733v6.98h-1.1v-5.323h-.848Z" transform="translate(-47.697 -48.371)" fill="#9f946d"/>
      <path id="Path_457" data-name="Path 457" d="M170.76,409.306a1.1,1.1,0,0,0,1.209-.876h.733V415.4h-1.1v-5.323h-.848Z" transform="translate(-47.698 -48.868)" fill="#9f946d"/>
      <path id="Path_458" data-name="Path 458" d="M170,441.51a1.667,1.667,0,1,1,3.324,0v3.638a1.667,1.667,0,1,1-3.324,0Zm1.1,3.7c0,.5.219.686.562.686s.571-.19.571-.686v-3.809c0-.5-.219-.686-.571-.686s-.562.19-.562.686Z" transform="translate(-47.662 -50.36)" fill="#9f946d"/>
      <path id="Path_459" data-name="Path 459" d="M157.5,305.367a1.667,1.667,0,0,1,3.333,0v3.628a1.667,1.667,0,1,1-3.333,0Zm1.1,3.695c0,.5.219.7.571.7s.571-.19.571-.7V305.3c0-.5-.219-.7-.571-.7s-.571.19-.571.7Z" transform="translate(-47.066 -43.873)" fill="#9f946d"/>
      <path id="Path_460" data-name="Path 460" d="M158.31,315.046a1.1,1.1,0,0,0,1.209-.876h.733v6.971h-1.1v-5.323h-.848Z" transform="translate(-47.105 -44.372)" fill="#9f946d"/>
      <path id="Path_461" data-name="Path 461" d="M158.31,325.516a1.1,1.1,0,0,0,1.209-.876h.733v7.009h-1.1v-5.323h-.848Z" transform="translate(-47.105 -44.872)" fill="#9f946d"/>
      <path id="Path_462" data-name="Path 462" d="M157.5,336.787a1.667,1.667,0,0,1,3.333,0v3.628a1.667,1.667,0,1,1-3.333,0Zm1.1,3.695c0,.5.219.7.571.7s.571-.19.571-.7V336.72c0-.5-.219-.7-.571-.7s-.571.19-.571.7Z" transform="translate(-47.066 -45.372)" fill="#9f946d"/>
      <path id="Path_463" data-name="Path 463" d="M157.5,357.737a1.667,1.667,0,0,1,3.333,0v3.628a1.667,1.667,0,1,1-3.333,0Zm1.1,3.695c0,.5.219.686.571.686s.571-.19.571-.686v-3.809c0-.5-.219-.686-.571-.686s-.571.19-.571.686Z" transform="translate(-47.066 -46.371)" fill="#9f946d"/>
      <path id="Path_464" data-name="Path 464" d="M157.5,368.207a1.667,1.667,0,0,1,3.333,0v3.628a1.667,1.667,0,1,1-3.333,0Zm1.1,3.695c0,.5.219.7.571.7s.571-.19.571-.7V368.14c0-.5-.219-.686-.571-.686s-.571.181-.571.686Z" transform="translate(-47.066 -46.87)" fill="#9f946d"/>
      <path id="Path_465" data-name="Path 465" d="M158.31,377.886a1.1,1.1,0,0,0,1.209-.876h.733v6.971h-1.1v-5.323h-.848Z" transform="translate(-47.105 -47.369)" fill="#9f946d"/>
      <path id="Path_466" data-name="Path 466" d="M157.5,389.157a1.667,1.667,0,0,1,3.333,0v3.628a1.667,1.667,0,1,1-3.333,0Zm1.1,3.695c0,.5.219.686.571.686s.571-.19.571-.686v-3.809c0-.5-.219-.686-.571-.686s-.571.19-.571.686Z" transform="translate(-47.066 -47.869)" fill="#9f946d"/>
      <path id="Path_467" data-name="Path 467" d="M158.31,398.826a1.1,1.1,0,0,0,1.209-.876h.733v6.98h-1.1v-5.323h-.848Z" transform="translate(-47.105 -48.368)" fill="#9f946d"/>
      <path id="Path_468" data-name="Path 468" d="M151.28,284.41a1.667,1.667,0,1,1,3.324,0v3.628a1.667,1.667,0,1,1-3.324,0Zm1.1,3.7c0,.5.219.686.562.686s.571-.19.571-.686v-3.809c0-.5-.219-.686-.571-.686s-.562.19-.562.686Z" transform="translate(-46.769 -42.868)" fill="#9f946d"/>
      <path id="Path_469" data-name="Path 469" d="M152.08,304.566a1.1,1.1,0,0,0,1.209-.876h.733v6.961h-1.067v-5.323h-.848Z" transform="translate(-46.807 -43.873)" fill="#9f946d"/>
      <path id="Path_470" data-name="Path 470" d="M152.08,325.516a1.1,1.1,0,0,0,1.209-.876h.733v7.009h-1.067v-5.323h-.848Z" transform="translate(-46.807 -44.872)" fill="#9f946d"/>
      <path id="Path_471" data-name="Path 471" d="M151.28,336.78a1.667,1.667,0,1,1,3.324,0v3.628a1.667,1.667,0,1,1-3.324,0Zm1.1,3.7c0,.5.219.686.562.686s.571-.19.571-.686v-3.809c0-.5-.219-.686-.571-.686s-.562.181-.562.686Z" transform="translate(-46.769 -45.365)" fill="#9f946d"/>
      <path id="Path_472" data-name="Path 472" d="M152.08,367.406a1.1,1.1,0,0,0,1.209-.876h.733v6.98h-1.067v-5.323h-.848Z" transform="translate(-46.807 -46.87)" fill="#9f946d"/>
      <path id="Path_473" data-name="Path 473" d="M152.08,377.886a1.1,1.1,0,0,0,1.209-.876h.733v6.971h-1.067v-5.323h-.848Z" transform="translate(-46.807 -47.369)" fill="#9f946d"/>
      <path id="Path_474" data-name="Path 474" d="M152.08,388.356a1.1,1.1,0,0,0,1.209-.876h.733v6.98h-1.067v-5.323h-.848Z" transform="translate(-46.807 -47.869)" fill="#9f946d"/>
      <path id="Path_475" data-name="Path 475" d="M347.11,32.527a1.667,1.667,0,1,1,3.333,0v3.628a1.667,1.667,0,1,1-3.333,0Zm1.1,3.695c0,.5.219.686.571.686s.562-.19.562-.686V32.412c0-.5-.219-.686-.562-.686s-.571.19-.571.686Z" transform="translate(-56.109 -30.86)" fill="#9f946d"/>
      <path id="Path_476" data-name="Path 476" d="M347.11,43a1.667,1.667,0,0,1,3.333,0v3.628a1.667,1.667,0,1,1-3.333,0Zm1.1,3.733c0,.5.219.7.571.7s.562-.19.562-.7V42.92c0-.5-.219-.7-.562-.7s-.571.19-.571.7Z" transform="translate(-56.109 -31.359)" fill="#9f946d"/>
      <path id="Path_477" data-name="Path 477" d="M347.92,73.616a1.086,1.086,0,0,0,1.2-.876h.781v6.98h-1.1V74.4h-.848Z" transform="translate(-56.148 -32.857)" fill="#9f946d"/>
      <path id="Path_478" data-name="Path 478" d="M347.92,84.1a1.086,1.086,0,0,0,1.2-.876h.781v6.971h-1.1V84.915h-.848Z" transform="translate(-56.148 -33.357)" fill="#9f946d"/>
      <path id="Path_479" data-name="Path 479" d="M347.11,116.307a1.667,1.667,0,0,1,3.333,0v3.628a1.667,1.667,0,1,1-3.333,0Zm1.1,3.7c0,.5.219.686.571.686s.562-.19.562-.686V116.2c0-.5-.219-.686-.562-.686s-.571.19-.571.686Z" transform="translate(-56.109 -34.856)" fill="#9f946d"/>
      <path id="Path_480" data-name="Path 480" d="M347.11,137.257a1.667,1.667,0,0,1,3.333,0v3.628a1.667,1.667,0,0,1-3.333,0Zm1.1,3.695c0,.5.219.7.571.7s.562-.19.562-.7V137.19c0-.5-.219-.686-.562-.686s-.571.181-.571.686Z" transform="translate(-56.109 -35.855)" fill="#9f946d"/>
      <path id="Path_481" data-name="Path 481" d="M328.43,53.467a1.667,1.667,0,0,1,3.333,0v3.628a1.667,1.667,0,1,1-3.333,0Zm1.1,3.7c0,.5.219.686.571.686s.562-.19.562-.686V53.362c0-.5-.219-.686-.562-.686s-.571.19-.571.686Z" transform="translate(-55.218 -31.859)" fill="#9f946d"/>
      <path id="Path_482" data-name="Path 482" d="M328.43,63.917a1.667,1.667,0,0,1,3.333,0v3.628a1.667,1.667,0,1,1-3.333,0Zm1.1,3.695c0,.5.219.686.571.686s.562-.19.562-.686V63.917c0-.5-.219-.686-.562-.686s-.571.19-.571.686Z" transform="translate(-55.218 -32.357)" fill="#9f946d"/>
      <path id="Path_483" data-name="Path 483" d="M328.43,74.417a1.667,1.667,0,1,1,3.333,0v3.628a1.667,1.667,0,1,1-3.333,0Zm1.1,3.695c0,.5.219.7.571.7s.562-.19.562-.7V74.35c0-.5-.219-.7-.562-.7s-.571.19-.571.7Z" transform="translate(-55.218 -32.858)" fill="#9f946d"/>
      <path id="Path_484" data-name="Path 484" d="M329.24,84.1a1.086,1.086,0,0,0,1.2-.876h.743v6.971h-1.1V84.915h-.848Z" transform="translate(-55.257 -33.357)" fill="#9f946d"/>
      <path id="Path_485" data-name="Path 485" d="M329.24,105.036a1.086,1.086,0,0,0,1.2-.876h.743v6.98h-1.1v-5.323h-.848Z" transform="translate(-55.257 -34.356)" fill="#9f946d"/>
      <path id="Path_486" data-name="Path 486" d="M329.24,115.516a1.086,1.086,0,0,0,1.2-.876h.743v7.009h-1.1v-5.323h-.848Z" transform="translate(-55.257 -34.856)" fill="#9f946d"/>
      <path id="Path_487" data-name="Path 487" d="M328.43,137.257a1.667,1.667,0,0,1,3.333,0v3.628a1.667,1.667,0,0,1-3.333,0Zm1.1,3.695c0,.5.219.7.571.7s.562-.19.562-.7V137.19c0-.5-.219-.686-.562-.686s-.571.181-.571.686Z" transform="translate(-55.218 -35.855)" fill="#9f946d"/>
      <path id="Path_488" data-name="Path 488" d="M329.24,146.956a1.086,1.086,0,0,0,1.2-.876h.743v6.971h-1.1v-5.323h-.848Z" transform="translate(-55.257 -36.355)" fill="#9f946d"/>
      <path id="Path_489" data-name="Path 489" d="M340.88,32.527a1.667,1.667,0,0,1,3.333,0v3.628a1.667,1.667,0,1,1-3.333,0Zm1.067,3.695c0,.5.219.686.562.686s.571-.19.571-.686V32.412c0-.5-.219-.686-.571-.686s-.562.19-.562.686Z" transform="translate(-55.812 -30.86)" fill="#9f946d"/>
      <path id="Path_490" data-name="Path 490" d="M341.69,42.2a1.1,1.1,0,0,0,1.209-.876h.733V48.3h-1.1V42.977h-.848Z" transform="translate(-55.851 -31.359)" fill="#9f946d"/>
      <path id="Path_491" data-name="Path 491" d="M340.88,53.467a1.667,1.667,0,0,1,3.333,0v3.628a1.667,1.667,0,1,1-3.333,0Zm1.067,3.7c0,.5.219.686.562.686s.571-.19.571-.686V53.362c0-.5-.219-.686-.571-.686s-.562.19-.562.686Z" transform="translate(-55.812 -31.859)" fill="#9f946d"/>
      <path id="Path_492" data-name="Path 492" d="M341.69,63.146a1.1,1.1,0,0,0,1.209-.876h.733v6.98h-1.1V63.917h-.848Z" transform="translate(-55.851 -32.358)" fill="#9f946d"/>
      <path id="Path_493" data-name="Path 493" d="M341.69,73.616a1.1,1.1,0,0,0,1.209-.876h.733v6.98h-1.1V74.4h-.848Z" transform="translate(-55.851 -32.857)" fill="#9f946d"/>
      <path id="Path_494" data-name="Path 494" d="M341.69,84.1a1.1,1.1,0,0,0,1.209-.876h.733v6.971h-1.1V84.915h-.848Z" transform="translate(-55.851 -33.357)" fill="#9f946d"/>
      <path id="Path_495" data-name="Path 495" d="M340.88,95.367a1.667,1.667,0,0,1,3.333,0v3.628a1.667,1.667,0,1,1-3.333,0Zm1.067,3.695c0,.5.219.686.562.686s.571-.19.571-.686V95.252c0-.5-.219-.686-.571-.686s-.562.19-.562.686Z" transform="translate(-55.812 -33.857)" fill="#9f946d"/>
      <path id="Path_496" data-name="Path 496" d="M340.88,105.837a1.667,1.667,0,0,1,3.333,0v3.628a1.667,1.667,0,1,1-3.333,0Zm1.067,3.695c0,.5.219.7.562.7s.571-.19.571-.7v-3.809c0-.5-.219-.686-.571-.686s-.562.181-.562.686Z" transform="translate(-55.812 -34.356)" fill="#9f946d"/>
      <path id="Path_497" data-name="Path 497" d="M335.46,42.2a1.1,1.1,0,0,0,1.209-.876h.733V48.3h-1.1V42.977h-.848Z" transform="translate(-55.554 -31.359)" fill="#9f946d"/>
      <path id="Path_498" data-name="Path 498" d="M334.66,53.46a1.667,1.667,0,1,1,3.324,0v3.628a1.667,1.667,0,1,1-3.324,0Zm1.1,3.7c0,.5.219.686.562.686s.571-.19.571-.686V53.355c0-.5-.219-.686-.571-.686s-.562.19-.562.686Z" transform="translate(-55.515 -31.852)" fill="#9f946d"/>
      <path id="Path_499" data-name="Path 499" d="M334.66,63.91a1.667,1.667,0,1,1,3.324,0v3.628a1.667,1.667,0,1,1-3.324,0Zm1.1,3.695c0,.5.219.686.562.686s.571-.19.571-.686V63.91c0-.5-.219-.686-.571-.686s-.562.19-.562.686Z" transform="translate(-55.515 -32.351)" fill="#9f946d"/>
      <path id="Path_500" data-name="Path 500" d="M335.46,73.616a1.1,1.1,0,0,0,1.209-.876h.733v6.98h-1.1V74.4h-.848Z" transform="translate(-55.554 -32.857)" fill="#9f946d"/>
      <path id="Path_501" data-name="Path 501" d="M335.46,94.566a1.1,1.1,0,0,0,1.209-.876h.733v6.961h-1.1v-5.3h-.848Z" transform="translate(-55.554 -33.857)" fill="#9f946d"/>
      <path id="Path_502" data-name="Path 502" d="M335.46,105.036a1.1,1.1,0,0,0,1.209-.876h.733v6.98h-1.1v-5.323h-.848Z" transform="translate(-55.554 -34.356)" fill="#9f946d"/>
      <path id="Path_503" data-name="Path 503" d="M335.46,115.516a1.1,1.1,0,0,0,1.209-.876h.733v7.009h-1.1v-5.323h-.848Z" transform="translate(-55.554 -34.856)" fill="#9f946d"/>
      <path id="Path_504" data-name="Path 504" d="M54,148.487a1.667,1.667,0,1,1,3.333,0v3.638a1.667,1.667,0,1,1-3.333,0Zm1.1,3.7c0,.5.219.686.571.686s.562-.19.562-.686v-3.809c0-.5-.219-.686-.562-.686s-.571.19-.571.686Z" transform="translate(-42.129 -36.391)" fill="#9f946d"/>
      <path id="Path_505" data-name="Path 505" d="M54,158.967a1.667,1.667,0,1,1,3.333,0v3.628a1.667,1.667,0,1,1-3.333,0Zm1.1,3.695c0,.5.219.686.571.686s.562-.181.562-.686v-3.809c0-.5-.219-.686-.562-.686s-.571.19-.571.686Z" transform="translate(-42.129 -36.891)" fill="#9f946d"/>
      <path id="Path_506" data-name="Path 506" d="M54.8,168.636a1.086,1.086,0,0,0,1.2-.876h.743v6.98h-1.1v-5.323H54.8Z" transform="translate(-42.168 -37.389)" fill="#9f946d"/>
      <path id="Path_507" data-name="Path 507" d="M54,179.917a1.667,1.667,0,1,1,3.333,0v3.638a1.667,1.667,0,0,1-3.333,0Zm1.1,3.7c0,.5.219.686.571.686s.562-.19.562-.686v-3.809c0-.5-.219-.686-.562-.686s-.571.19-.571.686Z" transform="translate(-42.129 -37.89)" fill="#9f946d"/>
      <path id="Path_508" data-name="Path 508" d="M54.8,189.586a1.086,1.086,0,0,0,1.2-.876h.743v6.942h-1.1v-5.323H54.8Z" transform="translate(-42.168 -38.389)" fill="#9f946d"/>
      <path id="Path_509" data-name="Path 509" d="M54,200.857a1.667,1.667,0,0,1,3.333,0v3.628a1.667,1.667,0,1,1-3.333,0Zm1.1,3.7c0,.5.219.686.571.686s.562-.19.562-.686v-3.809c0-.5-.219-.686-.562-.686s-.571.181-.571.686Z" transform="translate(-42.129 -38.888)" fill="#9f946d"/>
      <path id="Path_510" data-name="Path 510" d="M54.8,210.536a1.086,1.086,0,0,0,1.2-.876h.743v6.99h-1.1v-5.323H54.8Z" transform="translate(-42.168 -39.388)" fill="#9f946d"/>
      <path id="Path_511" data-name="Path 511" d="M54,221.807a1.667,1.667,0,0,1,3.333,0v3.628a1.667,1.667,0,1,1-3.333,0Zm1.1,3.695c0,.5.219.686.571.686s.562-.181.562-.686v-3.809c0-.5-.219-.686-.562-.686s-.571.19-.571.686Z" transform="translate(-42.129 -39.888)" fill="#9f946d"/>
      <path id="Path_512" data-name="Path 512" d="M54,232.277a1.667,1.667,0,0,1,3.333,0V235.9a1.667,1.667,0,1,1-3.333,0Zm1.1,3.7c0,.5.219.686.571.686s.562-.19.562-.686v-3.809c0-.5-.219-.686-.562-.686s-.571.19-.571.686Z" transform="translate(-42.129 -40.387)" fill="#9f946d"/>
      <path id="Path_513" data-name="Path 513" d="M54,242.757a1.667,1.667,0,0,1,3.333,0v3.628a1.667,1.667,0,0,1-3.333,0Zm1.1,3.695c0,.5.219.686.571.686s.562-.19.562-.686v-3.809c0-.5-.219-.686-.562-.686s-.571.19-.571.686Z" transform="translate(-42.129 -40.887)" fill="#9f946d"/>
      <path id="Path_514" data-name="Path 514" d="M54.8,262.9a1.076,1.076,0,0,0,1.2-.876h.743V269h-1.1v-5.323H54.8Z" transform="translate(-42.168 -41.885)" fill="#9f946d"/>
      <path id="Path_515" data-name="Path 515" d="M61,189.586a1.1,1.1,0,0,0,1.209-.876h.733v6.942H61.867v-5.323H61Z" transform="translate(-42.463 -38.389)" fill="#9f946d"/>
      <path id="Path_516" data-name="Path 516" d="M61,200.056a1.1,1.1,0,0,0,1.209-.876h.733v6.98H61.867v-5.323H61Z" transform="translate(-42.463 -38.888)" fill="#9f946d"/>
      <path id="Path_517" data-name="Path 517" d="M60.22,211.32a1.667,1.667,0,1,1,3.324,0v3.638a1.667,1.667,0,1,1-3.324,0Zm1.1,3.7c0,.5.219.686.562.686s.571-.19.571-.686v-3.809c0-.5-.219-.686-.571-.686s-.562.19-.562.686Z" transform="translate(-42.426 -39.381)" fill="#9f946d"/>
      <path id="Path_518" data-name="Path 518" d="M60.22,221.8a1.667,1.667,0,1,1,3.324,0v3.628a1.667,1.667,0,1,1-3.324,0Zm1.1,3.695c0,.5.219.686.562.686s.571-.181.571-.686v-3.809c0-.5-.219-.686-.571-.686s-.562.19-.562.686Z" transform="translate(-42.426 -39.881)" fill="#9f946d"/>
      <path id="Path_519" data-name="Path 519" d="M61,231.476a1.086,1.086,0,0,0,1.209-.876h.733v6.98H61.867v-5.323H61Z" transform="translate(-42.463 -40.387)" fill="#9f946d"/>
      <path id="Path_520" data-name="Path 520" d="M61,252.426a1.1,1.1,0,0,0,1.209-.876h.733v6.98H61.867v-5.323H61Z" transform="translate(-42.463 -41.386)" fill="#9f946d"/>
      <path id="Path_521" data-name="Path 521" d="M47.76,179.917a1.667,1.667,0,0,1,3.333,0v3.638a1.667,1.667,0,1,1-3.333,0Zm1.1,3.7c0,.5.219.686.562.686s.571-.19.571-.686v-3.809c0-.5-.219-.686-.571-.686s-.562.19-.562.686Z" transform="translate(-41.832 -37.89)" fill="#9f946d"/>
      <path id="Path_522" data-name="Path 522" d="M48.57,189.586a1.1,1.1,0,0,0,1.209-.876h.733v6.942h-1.1v-5.323H48.57Z" transform="translate(-41.871 -38.389)" fill="#9f946d"/>
      <path id="Path_523" data-name="Path 523" d="M48.57,200.056a1.1,1.1,0,0,0,1.209-.876h.733v6.98h-1.1v-5.323H48.57Z" transform="translate(-41.871 -38.888)" fill="#9f946d"/>
      <path id="Path_524" data-name="Path 524" d="M47.76,211.327a1.667,1.667,0,0,1,3.333,0v3.638a1.667,1.667,0,1,1-3.333,0Zm1.1,3.7c0,.5.219.686.562.686s.571-.19.571-.686v-3.809c0-.5-.219-.686-.571-.686s-.562.19-.562.686Z" transform="translate(-41.832 -39.388)" fill="#9f946d"/>
      <path id="Path_525" data-name="Path 525" d="M48.57,221.006a1.1,1.1,0,0,0,1.209-.876h.733v6.98h-1.1v-5.323H48.57Z" transform="translate(-41.871 -39.887)" fill="#9f946d"/>
      <path id="Path_526" data-name="Path 526" d="M47.76,232.277a1.667,1.667,0,0,1,3.333,0V235.9a1.667,1.667,0,1,1-3.333,0Zm1.1,3.7c0,.5.219.686.562.686s.571-.19.571-.686v-3.809c0-.5-.219-.686-.571-.686s-.562.19-.562.686Z" transform="translate(-41.832 -40.387)" fill="#9f946d"/>
      <path id="Path_527" data-name="Path 527" d="M41.54,158.96a1.667,1.667,0,1,1,3.324,0v3.628a1.667,1.667,0,1,1-3.324,0Zm1.1,3.695c0,.5.219.686.562.686s.571-.181.571-.686v-3.809c0-.5-.219-.7-.571-.7s-.562.19-.562.7Z" transform="translate(-41.535 -36.884)" fill="#9f946d"/>
      <path id="Path_528" data-name="Path 528" d="M42.34,179.116a1.1,1.1,0,0,0,1.209-.876h.733v6.971h-1.1v-5.295H42.34Z" transform="translate(-41.573 -37.889)" fill="#9f946d"/>
      <path id="Path_529" data-name="Path 529" d="M41.54,190.38a1.667,1.667,0,1,1,3.324,0v3.628a1.667,1.667,0,1,1-3.324,0Zm1.1,3.695c0,.5.219.686.562.686s.571-.181.571-.686v-3.762c0-.5-.219-.7-.571-.7s-.562.19-.562.7Z" transform="translate(-41.535 -38.383)" fill="#9f946d"/>
      <path id="Path_530" data-name="Path 530" d="M41.54,211.33a1.667,1.667,0,1,1,3.324,0v3.628a1.667,1.667,0,1,1-3.324,0Zm1.1,3.695c0,.5.219.686.562.686s.571-.19.571-.686v-3.809c0-.5-.219-.686-.571-.686s-.562.19-.562.686Z" transform="translate(-41.535 -39.382)" fill="#9f946d"/>
      <path id="Path_531" data-name="Path 531" d="M41.54,221.8a1.667,1.667,0,1,1,3.324,0v3.628a1.667,1.667,0,1,1-3.324,0Zm1.1,3.695c0,.5.219.7.562.7s.571-.19.571-.7v-3.809c0-.5-.219-.7-.571-.7s-.562.19-.562.7Z" transform="translate(-41.535 -39.881)" fill="#9f946d"/>
      <path id="Path_532" data-name="Path 532" d="M41.54,232.27a1.667,1.667,0,1,1,3.324,0V235.9a1.667,1.667,0,1,1-3.324,0Zm1.1,3.7c0,.5.219.686.562.686s.571-.19.571-.686v-3.809c0-.5-.219-.686-.571-.686s-.562.19-.562.686Z" transform="translate(-41.535 -40.381)" fill="#9f946d"/>
      <path id="Path_533" data-name="Path 533" d="M42.34,262.956a1.1,1.1,0,0,0,1.209-.886h.733v6.98h-1.1v-5.323H42.34Z" transform="translate(-41.573 -41.887)" fill="#9f946d"/>
    </g>
    <g id="freepik--icon-3--inject-2" transform="translate(342.455 174.407)">
      <path id="Path_534" data-name="Path 534" d="M391.432,253.559a.527.527,0,0,1-.2-.039A44.99,44.99,0,0,1,372.673,239.3a66.735,66.735,0,0,1-10.1-18.783,94.176,94.176,0,0,1-4.2-16.366c-.695-4.239-.844-7-.845-7.025a.527.527,0,0,1,.526-.555h6.139v-4.653a.527.527,0,0,1,.527-.527,39.28,39.28,0,0,0,10.7-1.511,44.139,44.139,0,0,0,8.342-3.329,38.96,38.96,0,0,0,7.323-4.824.527.527,0,0,1,.7,0,39.121,39.121,0,0,0,7.353,4.84,44.124,44.124,0,0,0,8.332,3.319,39.277,39.277,0,0,0,10.674,1.505.527.527,0,0,1,.527.527v4.653h6.139a.527.527,0,0,1,.526.555c0,.027-.151,2.786-.846,7.025a94.819,94.819,0,0,1-4.206,16.366,66.766,66.766,0,0,1-10.1,18.783,44.989,44.989,0,0,1-18.557,14.217A.526.526,0,0,1,391.432,253.559Zm-32.813-55.929c.078,1,.291,3.29.8,6.382a93.684,93.684,0,0,0,4.161,16.179,65.66,65.66,0,0,0,9.933,18.473,43.979,43.979,0,0,0,17.921,13.8,43.978,43.978,0,0,0,17.917-13.8,65.687,65.687,0,0,0,9.934-18.473,93.131,93.131,0,0,0,4.163-16.179c.508-3.092.722-5.382.8-6.382h-6.1a.527.527,0,0,1-.527-.527v-4.657a40.433,40.433,0,0,1-10.455-1.547,45.194,45.194,0,0,1-8.542-3.408,41.609,41.609,0,0,1-7.188-4.673,41.61,41.61,0,0,1-7.188,4.673A45.193,45.193,0,0,1,375.7,190.9a40.433,40.433,0,0,1-10.455,1.547V197.1a.527.527,0,0,1-.527.527Z" transform="translate(-357.526 -181.596)" fill="#9f946d"/>
      <path id="Path_535" data-name="Path 535" d="M391.705,248.124a.527.527,0,0,1-.223-.05,39.763,39.763,0,0,1-12.906-9.755,54.7,54.7,0,0,1-8.342-12.837,85.109,85.109,0,0,1-6.971-23.518.527.527,0,0,1,.521-.605h5.568v-4.92a.527.527,0,0,1,.463-.523,48.593,48.593,0,0,0,21.593-8.2.527.527,0,0,1,.6,0,48.64,48.64,0,0,0,21.6,8.2.527.527,0,0,1,.463.523v4.92h5.549a.527.527,0,0,1,.521.606,85.694,85.694,0,0,1-7,23.5,54.976,54.976,0,0,1-8.337,12.845,39.719,39.719,0,0,1-12.874,9.761A.527.527,0,0,1,391.705,248.124ZM364.4,202.413a83.7,83.7,0,0,0,6.788,22.616c5,10.494,11.9,17.889,20.52,21.985,8.587-4.1,15.478-11.5,20.483-22a84.285,84.285,0,0,0,6.814-22.6h-5.46a.527.527,0,0,1-.527-.527V196.9a49.695,49.695,0,0,1-21.309-8.111,49.647,49.647,0,0,1-21.3,8.111v4.983a.527.527,0,0,1-.527.527Z" transform="translate(-357.8 -181.884)" fill="#9f946d"/>
      <rect id="Rectangle_47" data-name="Rectangle 47" width="24.56" height="15.78" rx="1.35" transform="translate(21.621 29.877)" fill="#9f946d"/>
      <path id="Path_536" data-name="Path 536" d="M393.126,199a8.837,8.837,0,0,0-9.266,8.818v.952a.619.619,0,0,0,.619.619h2.228a.619.619,0,0,0,.619-.619v-.733a5.476,5.476,0,0,1,4.99-5.523,5.361,5.361,0,0,1,5.714,5.342v.952a.619.619,0,0,0,.619.619h2.228a.619.619,0,0,0,.619-.619v-.667A9,9,0,0,0,393.126,199Z" transform="translate(-358.782 -182.426)" fill="#9f946d"/>
      <path id="Path_537" data-name="Path 537" d="M395.319,219.284a2.3,2.3,0,1,0-3.314,2.066l-.838,3.7h3.685l-.838-3.7A2.314,2.314,0,0,0,395.319,219.284Z" transform="translate(-359.109 -183.284)" fill="#9f946d"/>
      <path id="Path_537_-_Outline" data-name="Path 537 - Outline" d="M392.986,216.421a2.829,2.829,0,0,1,1.6,5.164l.753,3.328a.527.527,0,0,1-.514.644h-3.685a.527.527,0,0,1-.514-.644l.753-3.329a2.832,2.832,0,0,1,1.607-5.163Zm1.18,8.081-.692-3.061a.527.527,0,0,1,.284-.591,1.774,1.774,0,0,0-.5-3.354,1.8,1.8,0,0,0-.272-.021,1.777,1.777,0,0,0-.777,3.375.527.527,0,0,1,.283.59L391.8,224.5Z" transform="translate(-359.083 -183.257)" fill="#490016"/>
    </g>
    <g id="freepik--icon-2--inject-2" transform="translate(199.152 46.77)">
      <path id="Rectangle_48" data-name="Rectangle 48" d="M3.135-.554H78.329a3.693,3.693,0,0,1,3.689,3.689V45.475a3.693,3.693,0,0,1-3.689,3.689H3.135A3.693,3.693,0,0,1-.554,45.475V3.135A3.693,3.693,0,0,1,3.135-.554ZM78.329,48.109a2.637,2.637,0,0,0,2.634-2.634V3.135A2.637,2.637,0,0,0,78.329.5H3.135A2.637,2.637,0,0,0,.5,3.135V45.475a2.637,2.637,0,0,0,2.634,2.634Z" transform="translate(0.554 0.554)" fill="#9f946d"/>
      <path id="Rectangle_49" data-name="Rectangle 49" d="M1.622,0H25.211a1.624,1.624,0,0,1,1.622,1.622V34.486a1.624,1.624,0,0,1-1.622,1.622H1.622A1.624,1.624,0,0,1,0,34.486V1.622A1.624,1.624,0,0,1,1.622,0ZM25.211,35.054a.569.569,0,0,0,.568-.568V1.622a.569.569,0,0,0-.568-.568H1.622a.569.569,0,0,0-.568.568V34.486a.569.569,0,0,0,.568.568Z" transform="translate(33.328 42.918) rotate(180)" fill="#9f946d"/>
      <path id="Path_538" data-name="Path 538" d="M227.352,90.5h-11.77a1.162,1.162,0,0,1-1.162-1.162V81.243s6.58-.286,7.685-1.686-.114-3.59-.114-3.59c-.4-.5-.5-4.009-.5-4.009l-.4-.1c-.39-.1-.952-3.009-.952-4.1a1.657,1.657,0,0,1,.952-1.5s-.952-7.1,6.219-7.1,6.209,7.1,6.209,7.1a1.657,1.657,0,0,1,.952,1.5c0,1.1-.514,4.009-.952,4.1l-.4.1s-.1,3.514-.5,4.009c0,0-1.228,2.19-.114,3.59s7.685,1.686,7.685,1.686v8.095a1.152,1.152,0,0,1-1.162,1.162Z" transform="translate(-207.398 -48.118)" fill="#9f946d"/>
      <path id="Path_539" data-name="Path 539" d="M283.757,92.129H267.739a1.219,1.219,0,0,1-1.219-1.19h0a1.219,1.219,0,0,1,1.219-1.219h16.018a1.219,1.219,0,0,1,1.219,1.219h0a1.219,1.219,0,0,1-1.219,1.19Z" transform="translate(-209.883 -49.577)" fill="#9f946d"/>
      <path id="Path_540" data-name="Path 540" d="M282.9,57.528H249.689a1.219,1.219,0,0,1-1.219-1.219h0a1.219,1.219,0,0,1,1.219-1.219H282.9a1.219,1.219,0,0,1,1.219,1.219h0a1.219,1.219,0,0,1-1.219,1.219Z" transform="translate(-209.022 -47.925)" fill="#9f946d"/>
      <path id="Path_541" data-name="Path 541" d="M268.735,66.177H249.689a1.219,1.219,0,0,1-1.219-1.238h0a1.219,1.219,0,0,1,1.219-1.219h19.046a1.219,1.219,0,0,1,1.19,1.219h0A1.219,1.219,0,0,1,268.735,66.177Z" transform="translate(-209.022 -48.337)" fill="#9f946d"/>
      <path id="Path_542" data-name="Path 542" d="M262.669,74.878h-12.98a1.219,1.219,0,0,1-1.219-1.219h0a1.219,1.219,0,0,1,1.219-1.219h12.98a1.219,1.219,0,0,1,1.219,1.219h0A1.219,1.219,0,0,1,262.669,74.878Z" transform="translate(-209.022 -48.753)" fill="#9f946d"/>
      <path id="Path_543" data-name="Path 543" d="M268.735,83.476H249.689a1.219,1.219,0,0,1-1.219-1.219h0A1.219,1.219,0,0,1,249.689,81h19.046a1.219,1.219,0,0,1,1.19,1.257h0A1.219,1.219,0,0,1,268.735,83.476Z" transform="translate(-209.022 -49.161)" fill="#9f946d"/>
    </g>
    <g id="freepik--icon-1--inject-2" transform="translate(76.457 176.34)">
      <path id="Path_544" data-name="Path 544" d="M78.734,183.626h46.092a.527.527,0,0,1,.527.527v46.853a.527.527,0,0,1-.154.373l-12.609,12.609a.527.527,0,0,1-.373.154H78.734a.527.527,0,0,1-.527-.527V184.154A.527.527,0,0,1,78.734,183.626Zm45.564,1.054H79.261v58.408H112l12.3-12.3Z" transform="translate(-78.206 -183.626)" fill="#9f946d"/>
      <path id="Path_545" data-name="Path 545" d="M126.529,233.38,113.92,245.989V233.38Z" transform="translate(-79.91 -185.999)" fill="#9f946d"/>
      <path id="Path_545_-_Outline" data-name="Path 545 - Outline" d="M113.894,232.826H126.5a.527.527,0,0,1,.373.9l-12.609,12.609a.527.527,0,0,1-.9-.373V233.354A.527.527,0,0,1,113.894,232.826Zm11.336,1.054H114.421v10.809Z" transform="translate(-79.883 -185.973)" fill="#9f946d"/>
      <path id="Line_12" data-name="Line 12" d="M27.79.5H-.026A.527.527,0,0,1-.554-.026.527.527,0,0,1-.026-.554H27.79a.527.527,0,0,1,.527.527A.527.527,0,0,1,27.79.5Z" transform="translate(11.781 8.134)" fill="#9f946d"/>
      <path id="Line_13" data-name="Line 13" d="M31.981.5H-.026A.527.527,0,0,1-.554-.026.527.527,0,0,1-.026-.554H31.981a.527.527,0,0,1,.527.527A.527.527,0,0,1,31.981.5Z" transform="translate(7.591 13.372)" fill="#9f946d"/>
      <path id="Line_14" data-name="Line 14" d="M31.981.5H-.026A.527.527,0,0,1-.554-.026.527.527,0,0,1-.026-.554H31.981a.527.527,0,0,1,.527.527A.527.527,0,0,1,31.981.5Z" transform="translate(7.591 18.609)" fill="#9f946d"/>
      <path id="Line_15" data-name="Line 15" d="M31.981.5H-.026A.527.527,0,0,1-.554-.026.527.527,0,0,1-.026-.554H31.981a.527.527,0,0,1,.527.527A.527.527,0,0,1,31.981.5Z" transform="translate(7.591 23.847)" fill="#9f946d"/>
      <path id="Line_16" data-name="Line 16" d="M31.981.5H-.026A.527.527,0,0,1-.554-.026.527.527,0,0,1-.026-.554H31.981a.527.527,0,0,1,.527.527A.527.527,0,0,1,31.981.5Z" transform="translate(7.591 29.085)" fill="#9f946d"/>
      <path id="Line_17" data-name="Line 17" d="M31.981.5H-.026A.527.527,0,0,1-.554-.026.527.527,0,0,1-.026-.554H31.981a.527.527,0,0,1,.527.527A.527.527,0,0,1,31.981.5Z" transform="translate(7.591 34.322)" fill="#9f946d"/>
      <path id="Line_18" data-name="Line 18" d="M31.981.5H-.026A.527.527,0,0,1-.554-.026.527.527,0,0,1-.026-.554H31.981a.527.527,0,0,1,.527.527A.527.527,0,0,1,31.981.5Z" transform="translate(7.591 39.551)" fill="#9f946d"/>
      <path id="Line_19" data-name="Line 19" d="M27.8.5H-.026A.527.527,0,0,1-.554-.026.527.527,0,0,1-.026-.554H27.8a.527.527,0,0,1,.527.527A.527.527,0,0,1,27.8.5Z" transform="translate(7.591 44.788)" fill="#9f946d"/>
      <path id="Path_546" data-name="Path 546" d="M120.177,252.1H86.694a.527.527,0,0,1-.527-.527v-5.542a.527.527,0,0,1,1.054,0v5.015h32.737l12.29-12.3V192.641H127.4a.527.527,0,1,1,0-1.054h5.381a.527.527,0,0,1,.527.527v46.853a.527.527,0,0,1-.154.373l-12.6,12.609A.527.527,0,0,1,120.177,252.1Z" transform="translate(-78.586 -184.006)" fill="#9f946d"/>
      <path id="Path_547" data-name="Path 547" d="M134.479,241.34l-12.6,12.609V241.34Z" transform="translate(-80.289 -186.379)" fill="#9f946d"/>
      <path id="Path_547_-_Outline" data-name="Path 547 - Outline" d="M121.854,240.786h12.6a.527.527,0,0,1,.373.9l-12.6,12.609a.527.527,0,0,1-.9-.373V241.314A.527.527,0,0,1,121.854,240.786Zm11.327,1.054h-10.8v10.808Z" transform="translate(-80.263 -186.353)" fill="#9f946d"/>
    </g>
    <g id="freepik--Fingerprint--inject-2" transform="translate(182.497 146.114)">
      <g id="Group_50" data-name="Group 50" opacity="0.5">
        <path id="Line_20" data-name="Line 20" d="M114.8.5H-.026A.527.527,0,0,1-.554-.026.527.527,0,0,1-.026-.554H114.8a.527.527,0,0,1,.527.527A.527.527,0,0,1,114.8.5Z" transform="translate(0.554 42.274)" fill="#9f946d"/>
        <path id="Line_21" data-name="Line 21" d="M114.8.5H-.026A.527.527,0,0,1-.554-.026.527.527,0,0,1-.026-.554H114.8a.527.527,0,0,1,.527.527A.527.527,0,0,1,114.8.5Z" transform="translate(0.554 56.959)" fill="#9f946d"/>
        <path id="Line_22" data-name="Line 22" d="M114.8.5H-.026A.527.527,0,0,1-.554-.026.527.527,0,0,1-.026-.554H114.8a.527.527,0,0,1,.527.527A.527.527,0,0,1,114.8.5Z" transform="translate(0.554 71.643)" fill="#9f946d"/>
        <path id="Line_23" data-name="Line 23" d="M114.8.5H-.026A.527.527,0,0,1-.554-.026.527.527,0,0,1-.026-.554H114.8a.527.527,0,0,1,.527.527A.527.527,0,0,1,114.8.5Z" transform="translate(0.554 86.328)" fill="#9f946d"/>
        <path id="Line_24" data-name="Line 24" d="M114.8.5H-.026A.527.527,0,0,1-.554-.026.527.527,0,0,1-.026-.554H114.8a.527.527,0,0,1,.527.527A.527.527,0,0,1,114.8.5Z" transform="translate(0.554 101.012)" fill="#9f946d"/>
        <path id="Line_25" data-name="Line 25" d="M114.8.5H-.026A.527.527,0,0,1-.554-.026.527.527,0,0,1-.026-.554H114.8a.527.527,0,0,1,.527.527A.527.527,0,0,1,114.8.5Z" transform="translate(0.554 115.706)" fill="#9f946d"/>
        <path id="Line_26" data-name="Line 26" d="M114.8.5H-.026A.527.527,0,0,1-.554-.026.527.527,0,0,1-.026-.554H114.8a.527.527,0,0,1,.527.527A.527.527,0,0,1,114.8.5Z" transform="translate(0.554 27.58)" fill="#9f946d"/>
        <path id="Line_27" data-name="Line 27" d="M114.8.5H-.026A.527.527,0,0,1-.554-.026.527.527,0,0,1-.026-.554H114.8a.527.527,0,0,1,.527.527A.527.527,0,0,1,114.8.5Z" transform="translate(0.554 12.895)" fill="#9f946d"/>
        <path id="Line_28" data-name="Line 28" d="M-.026,127.986a.527.527,0,0,1-.527-.527V-.026A.527.527,0,0,1-.026-.554.527.527,0,0,1,.5-.026V127.459A.527.527,0,0,1-.026,127.986Z" transform="translate(87.947 0.554)" fill="#9f946d"/>
        <path id="Line_29" data-name="Line 29" d="M-.026,127.986a.527.527,0,0,1-.527-.527V-.026A.527.527,0,0,1-.026-.554.527.527,0,0,1,.5-.026V127.459A.527.527,0,0,1-.026,127.986Z" transform="translate(72.957 0.554)" fill="#9f946d"/>
        <path id="Line_30" data-name="Line 30" d="M-.026,127.986a.527.527,0,0,1-.527-.527V-.026A.527.527,0,0,1-.026-.554.527.527,0,0,1,.5-.026V127.459A.527.527,0,0,1-.026,127.986Z" transform="translate(57.968 0.554)" fill="#9f946d"/>
        <path id="Line_31" data-name="Line 31" d="M-.026,127.986a.527.527,0,0,1-.527-.527V-.026A.527.527,0,0,1-.026-.554.527.527,0,0,1,.5-.026V127.459A.527.527,0,0,1-.026,127.986Z" transform="translate(42.979 0.554)" fill="#9f946d"/>
        <path id="Line_32" data-name="Line 32" d="M-.026,127.986a.527.527,0,0,1-.527-.527V-.026A.527.527,0,0,1-.026-.554.527.527,0,0,1,.5-.026V127.459A.527.527,0,0,1-.026,127.986Z" transform="translate(27.99 0.554)" fill="#9f946d"/>
        <path id="Line_33" data-name="Line 33" d="M-.026,127.986a.527.527,0,0,1-.527-.527V-.026A.527.527,0,0,1-.026-.554.527.527,0,0,1,.5-.026V127.459A.527.527,0,0,1-.026,127.986Z" transform="translate(13.01 0.554)" fill="#9f946d"/>
        <path id="Line_34" data-name="Line 34" d="M-.026,127.986a.527.527,0,0,1-.527-.527V-.026A.527.527,0,0,1-.026-.554.527.527,0,0,1,.5-.026V127.459A.527.527,0,0,1-.026,127.986Z" transform="translate(102.936 0.554)" fill="#9f946d"/>
      </g>
      <path id="Path_548" data-name="Path 548" d="M245.858,260.346a.528.528,0,0,1-.518-.627,142.781,142.781,0,0,1,5.267-19.6c.476-1.366,1.008-2.723,1.513-3.985l.022-.055c.652-1.664,1.636-4.18,2.328-6.515,1.043-3.519.848-4.75.639-5.17l-.006-.012a.817.817,0,0,0-.6-.46c-1.236,1.023-2.4,2.944-3.548,5.869-1.022,2.6-1.857,5.549-2.528,7.92l-.466,1.656a126.782,126.782,0,0,0-3.888,20.085.527.527,0,1,1-1.048-.116,127.843,127.843,0,0,1,3.921-20.254l.467-1.658c1.407-4.971,3.332-11.777,6.435-14.329a.9.9,0,0,1,.649-.235h.016a1.873,1.873,0,0,1,1.549,1.068c1.016,2.058-.981,7.548-2.932,12.533l-.023.059c-.5,1.254-1.029,2.6-1.5,3.943a141.727,141.727,0,0,0-5.227,19.459A.527.527,0,0,1,245.858,260.346Z" transform="translate(-192.106 -155.271)" fill="#9f946d"/>
      <path id="Path_549" data-name="Path 549" d="M250.059,260.444a.528.528,0,0,1-.518-.629,137.892,137.892,0,0,1,5-18.46c.266-.78.572-1.569.9-2.4.186-.479.378-.974.564-1.473l0-.009.013-.032c2.038-5.183,4.574-11.633,2.815-15.178a5.17,5.17,0,0,0-4.545-2.888,4.156,4.156,0,0,0-2.684.955c-3.9,3.18-5.912,10.271-7.529,15.969l-.471,1.663a127.058,127.058,0,0,0-3.916,19.915.527.527,0,1,1-1.048-.12,128.116,128.116,0,0,1,3.949-20.081l.471-1.664c1.658-5.84,3.72-13.108,7.874-16.5a5.208,5.208,0,0,1,3.367-1.195h.005a6.22,6.22,0,0,1,5.471,3.474c.886,1.785.925,4.265.121,7.581a67.9,67.9,0,0,1-2.9,8.45l-.011.028c-.188.5-.381,1-.568,1.482-.32.825-.623,1.6-.883,2.366a136.839,136.839,0,0,0-4.962,18.321A.527.527,0,0,1,250.059,260.444Z" transform="translate(-191.897 -155.055)" fill="#9f946d"/>
      <path id="Path_550" data-name="Path 550" d="M254.366,259.8a.528.528,0,0,1-.517-.634,133.5,133.5,0,0,1,4.58-16.617c.406-1.159.9-2.41,1.419-3.735,2.355-5.988,5.285-13.439,2.663-18.713a9.657,9.657,0,0,0-2.752-3.342A9.553,9.553,0,0,0,255.982,215a8.735,8.735,0,0,0-3.775,0,8.524,8.524,0,0,0-3.554,1.743c-4.979,4.055-7.2,11.909-8.988,18.219-.155.547-.3,1.064-.448,1.574a131.107,131.107,0,0,0-3.86,18.967.527.527,0,0,1-1.046-.133,132.174,132.174,0,0,1,3.891-19.123c.147-.511.293-1.027.447-1.572,1.826-6.453,4.1-14.484,9.336-18.749a9.569,9.569,0,0,1,3.99-1.955,9.781,9.781,0,0,1,4.228-.006,10.635,10.635,0,0,1,7.252,5.658c2.83,5.693-.2,13.386-2.626,19.568-.517,1.316-1.006,2.558-1.405,3.7a132.427,132.427,0,0,0-4.543,16.484A.527.527,0,0,1,254.366,259.8Z" transform="translate(-191.691 -154.837)" fill="#9f946d"/>
      <path id="Path_551" data-name="Path 551" d="M258.911,258.265a.528.528,0,0,1-.515-.641,122.84,122.84,0,0,1,3.94-13.859c.343-.995.776-2.1,1.234-3.261l.126-.32c2.669-6.8,5.99-15.249,2.5-22.257a13.9,13.9,0,0,0-12.313-7.707h-.039a12.83,12.83,0,0,0-8.134,2.918c-5.917,4.827-8.348,13.233-10.3,19.986l-.107.371-.456,1.607a129.6,129.6,0,0,0-3.632,17.157.527.527,0,0,1-1.044-.148,130.654,130.654,0,0,1,3.662-17.3l.565-1.982c1.994-6.895,4.476-15.475,10.646-20.509a13.9,13.9,0,0,1,8.849-3.157,14.955,14.955,0,0,1,13.25,8.292c3.694,7.427.279,16.122-2.466,23.109l-.127.323c-.454,1.154-.882,2.245-1.219,3.221a121.791,121.791,0,0,0-3.907,13.741A.527.527,0,0,1,258.911,258.265Z" transform="translate(-191.493 -154.618)" fill="#9f946d"/>
      <path id="Path_552" data-name="Path 552" d="M263.789,255.543a.528.528,0,0,1-.511-.657c.878-3.456,1.848-6.694,2.965-9.9.35-.986.77-2.072,1.293-3.4l.036-.093a63.98,63.98,0,0,0,3.855-12.367c.881-5.137.381-9.5-1.53-13.338a18.243,18.243,0,0,0-16.2-10.126,17.1,17.1,0,0,0-10.917,3.9c-7.1,5.789-9.732,15.074-11.846,22.535l-.457,1.6a131.318,131.318,0,0,0-3.215,14.293.527.527,0,0,1-1.04-.173,132.385,132.385,0,0,1,3.241-14.409l.457-1.6c2.154-7.6,4.836-17.064,12.192-23.062a18.154,18.154,0,0,1,11.591-4.137,19.3,19.3,0,0,1,17.136,10.711c4.532,9.1.591,19.192-2.287,26.558l-.037.095c-.519,1.319-.936,2.4-1.28,3.365-1.106,3.174-2.068,6.384-2.938,9.81A.528.528,0,0,1,263.789,255.543Z" transform="translate(-191.305 -154.401)" fill="#9f946d"/>
      <path id="Path_553" data-name="Path 553" d="M271.134,250.6a.533.533,0,0,1-.072,0,.527.527,0,0,1-.451-.594,45.251,45.251,0,0,1,3.033-9.735c1.769-4.528,3.773-9.659,4.086-15.127a29.619,29.619,0,0,0-1.249-10.752,22.382,22.382,0,0,0-3.127-6.288l-.005-.007a5.78,5.78,0,0,1-.674-5.356,18.333,18.333,0,0,0-.132-12.136.527.527,0,1,1,.991-.361,19.391,19.391,0,0,1,.137,12.845l-.006.017a4.726,4.726,0,0,0,.546,4.384,23.452,23.452,0,0,1,3.275,6.581,30.667,30.667,0,0,1,1.3,11.134c-.322,5.635-2.359,10.85-4.157,15.45a44.561,44.561,0,0,0-2.971,9.494A.527.527,0,0,1,271.134,250.6Z" transform="translate(-193.422 -153.699)" fill="#9f946d"/>
      <path id="Path_554" data-name="Path 554" d="M223.234,241.847a.533.533,0,0,1-.078-.006.527.527,0,0,1-.444-.6,112.646,112.646,0,0,1,4.4-18.629l0-.012c2.4-6.753,5.346-12.132,8.75-15.988a22.217,22.217,0,0,1,9.82-6.705c6.528-2.1,12.66-.227,16.323.891l.25.076c1.789.545,3.357.44,4.3-.287a3,3,0,0,0,1.027-2.655,24.954,24.954,0,0,0-3.546-12.108,26.283,26.283,0,0,0-8.672-8.625.527.527,0,1,1,.559-.894,27.326,27.326,0,0,1,9.014,8.971,26,26,0,0,1,3.7,12.615,3.991,3.991,0,0,1-1.437,3.531c-1.236.952-3.1,1.115-5.252.46l-.251-.076c-3.545-1.081-9.479-2.891-15.693-.9a21.181,21.181,0,0,0-9.352,6.4c-3.314,3.753-6.188,9.014-8.545,15.637a111.6,111.6,0,0,0-4.358,18.448A.527.527,0,0,1,223.234,241.847Z" transform="translate(-191.137 -153.047)" fill="#9f946d"/>
      <path id="Path_555" data-name="Path 555" d="M220.124,234.214a.528.528,0,0,1-.517-.632,111.815,111.815,0,0,1,3.253-12.343,64.624,64.624,0,0,1,3.763-9.2,37.321,37.321,0,0,1,6.215-8.942,26.1,26.1,0,0,1,8.941-6.194,32.379,32.379,0,0,1,10.92-2.634,25.865,25.865,0,0,1,6.6.629c1.953.392,2.846.536,3.538-.156a2.514,2.514,0,0,0,.377-2.118,15.016,15.016,0,0,0-2.926-6.143,20.3,20.3,0,0,0-6.427-5.679,27.608,27.608,0,0,0-12.918-3.025h-.007a.527.527,0,0,1-.007-1.054,28.667,28.667,0,0,1,13.418,3.143l.009,0c5.4,2.9,9.343,8.8,9.9,12.6a3.434,3.434,0,0,1-.675,3.017c-1.12,1.12-2.534.837-4.491.444a24.608,24.608,0,0,0-6.344-.61,31.355,31.355,0,0,0-10.565,2.557,25.048,25.048,0,0,0-8.579,5.948,36.266,36.266,0,0,0-6.035,8.688,63.568,63.568,0,0,0-3.7,9.045,110.768,110.768,0,0,0-3.223,12.228A.527.527,0,0,1,220.124,234.214Z" transform="translate(-190.989 -153.071)" fill="#9f946d"/>
      <path id="Path_556" data-name="Path 556" d="M218.264,223.4a.528.528,0,0,1-.5-.681c.279-.916.559-1.8.831-2.628a62.69,62.69,0,0,1,6.376-13.9l0-.005a35.772,35.772,0,0,1,10.152-10.663,31.208,31.208,0,0,1,13.789-5.13,26.678,26.678,0,0,1,3.448-.15c1.822.006,2.88-.024,3.435-.707.194-.239.132-.774-.157-1.365a9.712,9.712,0,0,0-4.523-3.86,23.731,23.731,0,0,0-10.669-1.962h-.008a30.379,30.379,0,0,0-7.488,1,.527.527,0,0,1-.269-1.02,31.436,31.436,0,0,1,7.745-1.036,24.771,24.771,0,0,1,11.145,2.066c3.4,1.628,4.64,3.582,5.014,4.347a2.31,2.31,0,0,1,.028,2.494c-.9,1.107-2.381,1.1-4.257,1.1a25.8,25.8,0,0,0-3.317.142,30.163,30.163,0,0,0-13.327,4.957,34.723,34.723,0,0,0-9.849,10.35,61.635,61.635,0,0,0-6.268,13.67l0,.005c-.271.821-.548,1.7-.825,2.607A.527.527,0,0,1,218.264,223.4Z" transform="translate(-190.9 -153.289)" fill="#9f946d"/>
      <path id="Path_557" data-name="Path 557" d="M219.694,208.562a.528.528,0,0,1-.518-.627,15.47,15.47,0,0,1,2.261-4.891,30.769,30.769,0,0,1,4.058-4.979,45.994,45.994,0,0,1,7.115-5.773,26.07,26.07,0,0,1,13.016-4.534,7.941,7.941,0,0,0,1.626-.242l-.009-.028c-.349-1-3.549-1.658-5.512-1.658h-.021a21.5,21.5,0,0,0-14.37,4.759.527.527,0,1,1-.663-.82,22.556,22.556,0,0,1,15.064-4.993,15.905,15.905,0,0,1,3.52.46c1.682.428,2.684,1.068,2.976,1.9a1.031,1.031,0,0,1-.061.936c-.342.535-1.091.606-2.451.734a25.1,25.1,0,0,0-12.53,4.361,37.1,37.1,0,0,0-10.871,10.444,14.665,14.665,0,0,0-2.112,4.52A.527.527,0,0,1,219.694,208.562Z" transform="translate(-190.969 -153.454)" fill="#9f946d"/>
      <path id="Path_558" data-name="Path 558" d="M276.383,245.782a.527.527,0,0,1-.478-.749A77.086,77.086,0,0,0,279,236.849c1.365-4.317,2.919-10.6,2.576-16.026a28.23,28.23,0,0,0-2.889-10.211,18.424,18.424,0,0,1-1.447-3.959,7.5,7.5,0,0,1,.268-3.743,6.28,6.28,0,0,0,.282-2.882.527.527,0,1,1,1.044-.149,7.248,7.248,0,0,1-.309,3.313,6.525,6.525,0,0,0-.245,3.28,17.832,17.832,0,0,0,1.372,3.712,29.121,29.121,0,0,1,2.978,10.574,35.569,35.569,0,0,1-.615,8.448A64.864,64.864,0,0,1,280,237.181a78.15,78.15,0,0,1-3.135,8.3A.527.527,0,0,1,276.383,245.782Z" transform="translate(-193.672 -154.154)" fill="#9f946d"/>
      <path id="Path_559" data-name="Path 559" d="M196.014,178.865a.527.527,0,0,1-.527-.527V158.854a.527.527,0,0,1,.527-.527H215.5a.527.527,0,0,1,0,1.054H196.541v18.957A.527.527,0,0,1,196.014,178.865Z" transform="translate(-189.839 -152.194)" fill="#9f946d"/>
      <path id="Path_560" data-name="Path 560" d="M215.5,279.4H196.014a.527.527,0,0,1-.527-.527V259.394a.527.527,0,1,1,1.054,0v18.957H215.5a.527.527,0,0,1,0,1.054Z" transform="translate(-189.839 -156.989)" fill="#9f946d"/>
      <path id="Path_561" data-name="Path 561" d="M303.768,178.865a.527.527,0,0,1-.527-.527V159.381H284.284a.527.527,0,1,1,0-1.054h19.484a.527.527,0,0,1,.527.527v19.484A.527.527,0,0,1,303.768,178.865Z" transform="translate(-194.049 -152.194)" fill="#9f946d"/>
      <path id="Path_562" data-name="Path 562" d="M303.768,279.4H284.284a.527.527,0,1,1,0-1.054h18.957V259.394a.527.527,0,0,1,1.054,0v19.484A.527.527,0,0,1,303.768,279.4Z" transform="translate(-194.049 -156.989)" fill="#9f946d"/>
    </g>
  </g>
</svg>
