<svg id="Group_49" data-name="Group 49" xmlns="http://www.w3.org/2000/svg" xmlns:xlink="http://www.w3.org/1999/xlink" width="284.152" height="76.375" viewBox="0 0 284.152 76.375">
  <defs>
    <clipPath id="clip-path">
      <rect id="Rectangle_44" data-name="Rectangle 44" width="284.152" height="76.375" fill="#fff"/>
    </clipPath>
  </defs>
  <g id="Group_48" data-name="Group 48" clip-path="url(#clip-path)">
    <path id="Path_301" data-name="Path 301" d="M69.513,115.669v9.712a3.672,3.672,0,0,0,.783,1h36.692a2.239,2.239,0,0,0,.336-.335v-4.577h1.566v3.907c0,.04.35.536.437.68a8.313,8.313,0,0,0,3.366.325V121.92h1.566v3.237a8.539,8.539,0,0,0,.325.792c.348.522,1.553.458,2.132.432-.1-.273.227-.524.227-.554V121.92h1.566V125.6a2.053,2.053,0,0,0,2.014.781V121.92h1.566v3.237a8.478,8.478,0,0,0,.325.792c.431.647,2.087.389,2.807.436.035-.4-.053-.843,0-1.232.03-.244.216-.431.232-.661.208-2.854-.163-5.945,0-8.823h1.566c-.087,2.633.115,5.3,0,7.93-.01.236-.219.424-.232.661a12.914,12.914,0,0,1-.223,3.684c-1.166-.1-2.56.152-3.692.009-.344-.043-1.131-.492-1.313-.44s-.291.352-.495.413c-1.155.343-2.936-.459-3.089-.415-.191.056-.264.386-.685.445a12.877,12.877,0,0,1-2.249,0c-.344-.043-1.131-.492-1.313-.44-.2.056-.27.385-.689.443a22.15,22.15,0,0,1-3.593,0,2.03,2.03,0,0,1-1.113-.675l-.456.677-38.031,0a2.439,2.439,0,0,1-1.642-1.487c-.064-.27-.008-.553-.058-.836-.024-.137-.2-.214-.2-.251v-9.712Z" transform="translate(-52.733 -89.77)" fill="#fff"/>
    <path id="Path_302" data-name="Path 302" d="M447.905,141.024l.223-4.465H449.7l.112,1.563a14.064,14.064,0,0,1,1.684-1.222c2.412-1.354,5.686-2.085,7.048.992.8,1.8.292,3.537-1.614,4.206a19.42,19.42,0,0,1-6.675.494c-.487-.066-.821-.548-1.336-.457l-.231.46-38.034,0-1.575-1.117-2.222.676c-1.421-.315-3.036-.956-3.249-2.574-.3-2.25,3.329-3.477,5.151-3.466.061-.309-.14-1.532.114-1.563.456-.057.983.04,1.452,0,.068,1.205-.092,2.493,0,3.688.035.478.159,1.224.222,1.787a5.311,5.311,0,0,0,.245.761,5.1,5.1,0,0,0,.544.238Zm8.925-3.1a8.446,8.446,0,0,0-.975-.478,6.14,6.14,0,0,0-2.65.272,13.836,13.836,0,0,0-3.288,2.077c-.3.218-.231.46-.222.782.467-.016.784.393,1.225.453a18.9,18.9,0,0,0,5.34-.487c.353-.108.632-.435,1.036-.417a6.3,6.3,0,0,0-.023-1.193,10.89,10.89,0,0,0-.443-1.01m-48.078-.247c-.221-.226-2.082.382-2.467.552-.413.182-.656.563-1.109.568-.131,1.807,2.476,2.055,3.581,1.228.507-.379.032-.734-.009-1.116s.035-.83,0-1.232" transform="translate(-313.219 -104.408)" fill="#fff"/>
    <path id="Path_303" data-name="Path 303" d="M365.736,207.458l-.448,1.559a7.734,7.734,0,0,0-5.04-1.122c-1.579.215-2.314,2.583-.783,3.472,1.167.678,3.359.685,4.774,1.264a3.02,3.02,0,0,1,2.18,2.748,7.759,7.759,0,0,1-.8,2.343c-1.612,2.2-6.823,1.995-8.817.338l.428-1.453c.46-.02.688.378,1.112.564a7.462,7.462,0,0,0,2.583.547c.25.027.444.24.667.24s.416-.21.667-.24c.566-.066,1.176.126,1.69-.323a4.358,4.358,0,0,0,.671-1.117,1.866,1.866,0,0,0-1.5-2.316c-1.365-.456-3.358-.562-4.631-1.183a3.348,3.348,0,0,1-1.491-2.084,3.789,3.789,0,0,1,1.712-3.66c1.494-.983,4.119-.862,5.746-.21.5.2.794.6,1.273.632" transform="translate(-276.915 -160.121)" fill="#fff"/>
    <path id="Path_304" data-name="Path 304" d="M670.916,218.3l-1.555-.015-.123-.434a4.439,4.439,0,0,1-2.689.677,3.636,3.636,0,0,1-2.979-3.278,6.177,6.177,0,0,1,.442-2.611,8.276,8.276,0,0,1,1.311-1.371c1.109-.757,2.53-.536,3.8-.558v-5.023c0-.469,1.79-.469,1.79,0Zm-1.79-6.028c-1.405-.462-3.645-.335-3.81,1.444-.089.967-.144,2.272.679,2.908a2.3,2.3,0,0,0,3.131-.222Z" transform="translate(-514.976 -159.358)" fill="#fff"/>
    <path id="Path_305" data-name="Path 305" d="M702.629,115.669H704.2c-.168,3.326.224,6.86,0,10.163-.016.232-.206.419-.232.661-.05.464.042.982,0,1.456H700.28c-.107,0-1.082-.6-1.23-.447-.5,1.69-2.219,3.121-3.722,3.988-.206.119-1.1.592-1.2.476l-.673-1.227c1.467-.873,4.143-2.466,4.451-4.276a12.947,12.947,0,0,0-.465-2.158,9.506,9.506,0,0,0-.62-1.6l1.556-.781c.254,1.279.945,4.129,2.378,4.437.4.086,1.873.116,1.873-.306Z" transform="translate(-538.187 -89.77)" fill="#fff"/>
    <path id="Path_306" data-name="Path 306" d="M406.68,229.1h1.341l0,.671c.5.043.8-.541,1.259-.642a3.855,3.855,0,0,1,3.773,1.089,6.5,6.5,0,0,1,.79,1.892,5.579,5.579,0,0,1-.564,3.019,4.535,4.535,0,0,1-5.034,1.563v3.8H406.68Zm1.566,2.121v4.13c1.315.345,3.053.265,3.7-1.11.61-1.3.293-2.155-.37-3.327a2.421,2.421,0,0,0-3.328.307" transform="translate(-315.621 -177.749)" fill="#fff"/>
    <path id="Path_307" data-name="Path 307" d="M874.878,205.409v6.028c.719-.691,1.483-.605,2.349-.905.856.28,1.688.319,2.237,1.128.342.5.245,1,.559,1.451v5.247h-1.566v-4.8a7.926,7.926,0,0,0-.33-.787,1.738,1.738,0,0,0-1.991-.635c-.464.1-.774.685-1.259.641v5.582h-1.566V205.409Z" transform="translate(-677.771 -159.416)" fill="#fff"/>
    <path id="Path_308" data-name="Path 308" d="M724.356,215.3l-4.922-7.925,2.008,0,3.471,6.025.562.221,3.7-6.259,1.893.119-4.922,7.814v4.577h-1.79Z" transform="translate(-558.347 -160.938)" fill="#fff"/>
    <path id="Path_309" data-name="Path 309" d="M13.3,140.008h1.566c-.1,1.564.128,3.258,0,4.8-.036.447-.42,1.061-.228,1.67H4.459c-.925-.474-1.758-.521-2.243-1.557-.9-1.921.078-3.6.79-5.364.607-.093,1.1.435,1.565.782-.942.9-1.746,3.187-.565,4.136a5.765,5.765,0,0,0,.9.44h8.054a2.248,2.248,0,0,0,.336-.335Z" transform="translate(-1.439 -108.304)" fill="#fff"/>
    <path id="Path_310" data-name="Path 310" d="M658.87,115.669v9.042c0,.037.171.114.2.251.061.335-.054.713.13.986.488.725,2.64.344,3.477.438l.223-4.912c.463.024,1.411-.165,1.555.346a15.865,15.865,0,0,1,.019,2.676c-.021.395-.217.621-.236.881-.047.62.24,2.4-.343,2.56a32.544,32.544,0,0,1-4.468.016,2.432,2.432,0,0,1-1.561-.9c-.565-.826-.254-1.654-.331-2.572-.02-.238-.219-.425-.232-.661-.152-2.668.122-5.472,0-8.153Z" transform="translate(-510.089 -89.77)" fill="#fff"/>
    <path id="Path_311" data-name="Path 311" d="M875.944,151.7a6.951,6.951,0,0,0,2.682-1.23,6.6,6.6,0,0,0,1.568-1.561l-1.458-.107a15.089,15.089,0,0,1-2.2-.7c-1.185-.693-1.128-1.948-.71-3.107,1.3-3.605,4.751-3.051,5.9.38,1.232,3.67-1.659,6.686-4.985,7.663Zm4.475-4.465c.085-.944-.472-2.869-1.478-3.1-1.039-.241-2.344,1.6-1.775,2.441.476.525,1.05.342,1.58.433a3.711,3.711,0,0,0,1.673.228" transform="translate(-679.508 -110.616)" fill="#fff"/>
    <path id="Path_312" data-name="Path 312" d="M354.478,152.941l-.449-1.339a8.445,8.445,0,0,0,3.692-2.233c.189-.226.428-.286.336-.669-1.314.125-4.267-.328-4.481-1.892a4.3,4.3,0,0,1,.79-3.019c1.753-2.462,4.158-1.351,5.153,1.107,1.171,2.895-.2,5.59-2.723,7.122-.322.2-2.13,1.13-2.318.923m.449-6.477c.4-.052.721.353,1.033.421s.607-.021.871.024c.557.1,1.18.588,1.664-.105-.351-.3-.141-.736-.245-1.087a1.741,1.741,0,1,0-3.323.748" transform="translate(-274.381 -110.521)" fill="#fff"/>
    <path id="Path_313" data-name="Path 313" d="M596.2,236.114a10.742,10.742,0,0,1-1.218-.012c-.35-.1-.318-.752-.46-.657-.9,1.068-3.578,1.272-4.481.23a4.52,4.52,0,0,1-.566-1.681c0-2.569,3.332-2.42,5.159-2.344.2-2.3-2.516-2.06-4.027-1.339l-.447-1.228c.005-.429,1.77-.5,2.129-.553.253-.039.451-.24.667-.24s.415.2.667.24c.871.131,1.4-.01,2.018.889a10.225,10.225,0,0,1,.56,1.228Zm-1.566-3.126c-.981.092-4.075-.527-3.565,1.214.955,1.486,3.965.685,3.565-1.214" transform="translate(-457.491 -177.173)" fill="#fff"/>
    <path id="Path_314" data-name="Path 314" d="M770.219,228.456c2.029.12,3.608,1.079,3.882,3.207a4.585,4.585,0,0,1-1.571,4.247,4.076,4.076,0,0,1-5.341-.922,4.716,4.716,0,0,1,.085-4.993,8.4,8.4,0,0,1,1-1.012c.578-.339,1.362-.221,1.946-.527m1.847,6.21c1.277-2.9-.142-5.921-3.546-4.209-.468,1.914-.724,4.186,1.695,4.648Z" transform="translate(-594.888 -177.303)" fill="#fff"/>
    <path id="Path_315" data-name="Path 315" d="M277.207,228.414c.558-.083.656.107,1.084.193a5.056,5.056,0,0,1,.643.029c3.5,1.065,3.046,7.318-.636,7.789-1.4.179-3.281-.276-4.038-1.562a10.317,10.317,0,0,1-.557-1.9,4.833,4.833,0,0,1,1.788-4.029,9.66,9.66,0,0,1,1.717-.52m-.676,1.56a2.168,2.168,0,0,0-.707.411c-.54.621-.468,3.106.007,3.8.459.672.915.606,1.6.868.759-.263,1.523-.075,1.983-.862.685-1.172.269-3.917-1.153-4.219a5.941,5.941,0,0,0-1.732,0" transform="translate(-212.403 -177.255)" fill="#fff"/>
    <path id="Path_316" data-name="Path 316" d="M447.081,228.414c.558-.082.656.107,1.084.193a5.013,5.013,0,0,1,.642.029c3.5,1.065,3.046,7.318-.636,7.789-1.4.179-3.281-.276-4.038-1.562a7.2,7.2,0,0,1-.558-3.025,4.8,4.8,0,0,1,1.789-2.9,9.682,9.682,0,0,1,1.717-.52m1.84,2.006a8,8,0,0,0-.972-.482c-.979-.135-2.251-.045-2.55,1.042a15.372,15.372,0,0,0-.266,1.533,6.694,6.694,0,0,0,.489,1.534c.686,1.158,1.835.963,2.969.79a2.975,2.975,0,0,0,.77-3.628c-.037-.089-.41-.756-.442-.787" transform="translate(-344.243 -177.254)" fill="#fff"/>
    <path id="Path_317" data-name="Path 317" d="M313.1,206.844a8.138,8.138,0,0,1,.56-1.228c.519-.76,1.01-.762,1.79-.892.222-.037.365-.177.485-.2.054-.01.871.156,1.086.192.91.151.48.952.331,1.568l-2.458-.219c.1.272-.227.523-.227.554v3.46c.395.068,2.653-.141,2.685.114.057.455-.04.981,0,1.449h-2.685v6.028H313.1v-6.028h-1.343v-1.563H313.1c.117-.993-.161-2.293,0-3.237" transform="translate(-241.95 -158.731)" fill="#fff"/>
    <path id="Path_318" data-name="Path 318" d="M808.931,229.283v5.247c0,.363.986,1.24,1.452,1.239l2.128-1.016v-5.47c.357-.024,1.566-.075,1.566.335v7.256h-1.564l-.114-.669a3.263,3.263,0,0,1-4.257.229,7.527,7.527,0,0,1-.777-1.234v-5.916Z" transform="translate(-626.59 -177.933)" fill="#fff"/>
    <path id="Path_319" data-name="Path 319" d="M627.506,229.2l1.338,0,.228.889c1.025-1.114,3.512-1.321,4.48-.117a7.533,7.533,0,0,1,.666,1.345v5.47h-1.566v-5.023a5.923,5.923,0,0,0-.442-.676c-.973-1.191-2.183-.334-3.138.452v5.246h-1.566Z" transform="translate(-487.003 -177.853)" fill="#fff"/>
    <path id="Path_320" data-name="Path 320" d="M545.711,229.687l-.223,1.561c-.1.108-1.515-.625-1.9-.675-1-.131-2.078-.007-1.909,1.229l3.7,1.225a2.2,2.2,0,0,1-.259,3.55,6.091,6.091,0,0,1-5.011-.078c-.255-.147-.053-.636.008-.9.069-.289.247-.488.221-.784a4.6,4.6,0,0,0,3.439.865c.809-.172,1.172-.954.371-1.429-1.526-.9-4.455-.108-4.039-3.125.314-2.28,3.964-2.2,5.6-1.444" transform="translate(-419.081 -177.888)" fill="#fff"/>
    <path id="Path_321" data-name="Path 321" d="M781.317,144.274c-.066-.066-.192-.631-.448-.781a3.879,3.879,0,0,1,1.315-4.214l-.453-.225.23-1.45c1.7.223,4.266,1.357,4.82,3.117.062.2.314,1.352.3,1.424a9.826,9.826,0,0,1-.528,1.717c-.659,1.127-2.856,1.33-4,1.082-.075-.016-1.181-.62-1.231-.669m.884-1.329c1.331.657,2.6.78,3.53-.537-.258-.485-.189-.959-.527-1.455-.211-.309-1.214-1.208-1.551-1.11-.875.812-2.091,1.834-1.452,3.1" transform="translate(-605.883 -106.794)" fill="#fff"/>
    <path id="Path_322" data-name="Path 322" d="M511.941,222.324H510.6v-1.563h1.343c.067-.378-.142-2.424.114-2.456.456-.057.983.04,1.452,0v2.456h2.461v1.563h-2.461v3.907a3.973,3.973,0,0,0,.441.676c.794.7,1.947.028,2.02.105l.224,1.34c-1,.354-2.959.413-3.7-.44a9.5,9.5,0,0,1-.553-1.234Z" transform="translate(-396.272 -169.411)" fill="#fff"/>
    <path id="Path_323" data-name="Path 323" d="M844.455,222.324h-1.119v-1.563h1.119c.067-.378-.142-2.424.115-2.456.456-.057.983.04,1.452,0v2.456h2.461v1.563h-2.461v3.684a9.281,9.281,0,0,0,.465.987,3.5,3.5,0,0,0,.991.253c.387,0,.532-.19.693-.219.615-.112.587.876.532,1.319-1.544.468-3.348.486-3.988-1.259a5.335,5.335,0,0,1-.068-.6c-.031-.148-.191-.228-.191-.255Z" transform="translate(-654.507 -169.411)" fill="#fff"/>
    <rect id="Rectangle_38" data-name="Rectangle 38" width="1.566" height="12.279" transform="translate(75.845 25.899)" fill="#fff"/>
    <rect id="Rectangle_39" data-name="Rectangle 39" width="1.566" height="12.279" transform="translate(168.022 25.899)" fill="#fff"/>
    <rect id="Rectangle_40" data-name="Rectangle 40" width="1.566" height="12.279" transform="translate(187.934 25.899)" fill="#fff"/>
    <path id="Path_324" data-name="Path 324" d="M810.288,143.588c.057,1.073.78,2.2.9,3.233.376,3.279-2.268,5.631-5.031,6.812l-.79-1.225c.084-.291,1.459-.884,1.789-1.119a9,9,0,0,0,1.9-1.9c1.2-1.9.163-3.416-.335-5.357Z" transform="translate(-625.039 -111.438)" fill="#fff"/>
    <path id="Path_325" data-name="Path 325" d="M848.258,143.588l.9,3.457c.24,3.191-2.381,5.376-5.031,6.588l-.79-1.225a14.721,14.721,0,0,0,3.69-3.017,3.248,3.248,0,0,0,.565-2.347,17.582,17.582,0,0,0-.487-1.747c-.136-.431-.549-.731-.413-1.262Z" transform="translate(-654.507 -111.438)" fill="#fff"/>
    <path id="Path_326" data-name="Path 326" d="M484.619,229.337h1.343v.893c.5.085.643-.438,1.038-.638a3.691,3.691,0,0,1,2.541-.03c.1.359-.272,1.784-.559,1.784a1.893,1.893,0,0,0-2.8.336v5.246h-1.566Z" transform="translate(-376.109 -177.987)" fill="#fff"/>
    <path id="Path_327" data-name="Path 327" d="M857.443,125.089a1.084,1.084,0,1,1-1.084-1.082,1.083,1.083,0,0,1,1.084,1.082" transform="translate(-663.773 -96.241)" fill="#fff"/>
    <path id="Path_328" data-name="Path 328" d="M242.889,178.958a1.078,1.078,0,1,1-1.078-1.076,1.077,1.077,0,0,1,1.078,1.076" transform="translate(-186.831 -138.053)" fill="#fff"/>
    <path id="Path_329" data-name="Path 329" d="M31.331,178.914a1.071,1.071,0,1,1-1.071-1.069,1.07,1.07,0,0,1,1.071,1.069" transform="translate(-22.653 -138.024)" fill="#fff"/>
    <path id="Path_330" data-name="Path 330" d="M622.985,125.03a1.071,1.071,0,1,1-1.071-1.069,1.07,1.07,0,0,1,1.071,1.069" transform="translate(-481.831 -96.205)" fill="#fff"/>
    <path id="Path_331" data-name="Path 331" d="M785.771,124.819l-1.333.133c-1.308-.8-.035-2.806,1.133-1.8a2.061,2.061,0,0,1,.454.9Z" transform="translate(-608.368 -95.363)" fill="#fff"/>
    <path id="Path_332" data-name="Path 332" d="M674.511,178.973a1.072,1.072,0,1,1-1.072-1.07,1.071,1.071,0,0,1,1.072,1.07" transform="translate(-521.819 -138.069)" fill="#fff"/>
    <path id="Path_333" data-name="Path 333" d="M796.762,124.081a1.057,1.057,0,1,1-1.057-1.055,1.056,1.056,0,0,1,1.057,1.055" transform="translate(-616.72 -95.48)" fill="#fff"/>
    <path id="Path_334" data-name="Path 334" d="M683.625,177.782c.027-.027.584-.168.739-.222,1.317.491,1.566,1.876.029,2.231-.744-.229-1.109-.382-1.013-1.248a5.3,5.3,0,0,1,.245-.76" transform="translate(-530.354 -137.803)" fill="#fff"/>
    <path id="Path_335" data-name="Path 335" d="M423.155,119.914c1.1-.5,1.686-.173,1.99.969l-.426.7a1.5,1.5,0,0,1-1.469-.114c-.475-.639-.157-.863-.095-1.558" transform="translate(-328.282 -92.887)" fill="#fff"/>
    <path id="Path_336" data-name="Path 336" d="M414.325,120.615a1.054,1.054,0,1,1-1.054-1.051,1.053,1.053,0,0,1,1.054,1.051" transform="translate(-319.919 -92.793)" fill="#fff"/>
    <path id="Path_337" data-name="Path 337" d="M117.332,213.751a1.043,1.043,0,1,1-1.043-1.04,1.042,1.042,0,0,1,1.043,1.04" transform="translate(-89.442 -165.084)" fill="#fff"/>
    <path id="Path_338" data-name="Path 338" d="M290.682,125.623a1.018,1.018,0,1,1-1.018-1.016,1.017,1.017,0,0,1,1.018,1.016" transform="translate(-224.016 -96.707)" fill="#fff"/>
    <path id="Path_339" data-name="Path 339" d="M284.291,115.647a1.446,1.446,0,0,1,1.434.782c.069.238-.536,1.123-.791,1.2-1.333.389-1.645-1.685-.642-1.98" transform="translate(-220.178 -89.733)" fill="#fff"/>
    <path id="Path_340" data-name="Path 340" d="M280.352,125.722a.981.981,0,1,1-.981-.979.98.98,0,0,1,.981.979" transform="translate(-216.056 -96.812)" fill="#fff"/>
    <path id="Path_341" data-name="Path 341" d="M510.8,306.378c-.377-.016-.545.369-.782.448-.332.11-.854-.1-.98.473.717.2,1.337.8,2.121.9a2.249,2.249,0,0,0,1.459-.229l.224.894c-.607.006-1.027.313-1.684.228-1.184-.153-2.4-1.171-3.381-1.76-.758-.455-1.957-.771-2.437-1.587a5.1,5.1,0,0,1-.294-3.654c.626-1.881,2.248-2.4,4.108-2.161,2.318.294,2.851,2.582,2.574,4.587-.09.652-.752,1.241-.929,1.864m-.671-5.079a3.01,3.01,0,0,0-3.111-.37c-1.09.416-.995,1.1-1.107,2.019-.029.238-.238.425-.2.63.021.118.162.262.2.483.13.778.132,1.268.894,1.786a2.619,2.619,0,0,0,2.991.083c1.041-.607,1.193-2.1,1.041-3.214-.076-.559-.6-.886-.705-1.417" transform="translate(-391.8 -232.729)" fill="#fff"/>
    <path id="Path_342" data-name="Path 342" d="M348.678,306.711l.224-.893c.417-.065.686.316,1.036.417.2.057,1.123.248,1.313.265.436.038.842-.335,1.324-.254.24-.067.512-.772.557-1.021a3.889,3.889,0,0,0-.219-.73c-.039-.039-.9-.4-1.021-.433-.46-.131-1.2-.13-1.724-.289-.145-.044-.983-.392-1.022-.431a11.01,11.01,0,0,1-.481-1.208,6.262,6.262,0,0,1,.567-1.457c.727-.839,3.265-.885,4.152-.335.4.25.251.777-.118,1.011-1.13-1-4.4-.948-3.363,1.124.367.735,2.909.562,3.7,1.438a1.905,1.905,0,0,1-.371,2.768c-1.292.865-3.171.5-4.558.029" transform="translate(-270.596 -232.811)" fill="#fff"/>
    <path id="Path_343" data-name="Path 343" d="M430.5,314.861h-3.132c-.069.338.108.47.331.675.789.725,1.492.391,2.354,0l0,.888c-2.272.71-3.937.046-3.581-2.568.191-1.4,2-2.016,3.218-1.414.783.387.866,1.632.815,2.424m-.895-.893c-.045-1.157-1.791-1.207-2.237-.335-.223.436.37.331.559.335.559.011,1.121-.008,1.678,0" transform="translate(-330.944 -242.301)" fill="#fff"/>
    <path id="Path_344" data-name="Path 344" d="M542.4,316.556c-.476.238-.909-.423-1-.421s-.482.344-.7.392a3.334,3.334,0,0,1-1.857-.21,2.2,2.2,0,0,1,0-1.978,6.932,6.932,0,0,1,2.669-.239l-.227-1.112-1.9.21a.769.769,0,0,1-.335-.884c1.033-.021,1.89-.616,2.8.217a4.56,4.56,0,0,1,.553.787Zm-.895-1.786h-2.014l0,.888c.765.333,2.17.228,2.009-.888" transform="translate(-418.001 -242.21)" fill="#fff"/>
    <path id="Path_345" data-name="Path 345" d="M393.623,316.7l-.011-.44a2.662,2.662,0,0,1-2.665.207,2.2,2.2,0,0,1,0-1.978c.559-.434,2.488.032,2.669-.574.216-.722-1.669-1.1-2.127-.567a.769.769,0,0,1-.335-.884c1.118-.132,2.16-.5,3.027.44a7.782,7.782,0,0,1,.318,3.455c-.1.332-.555.405-.877.341m-.007-1.781H391.6l0,.888c.765.333,2.17.228,2.009-.888" transform="translate(-303.229 -242.357)" fill="#fff"/>
    <path id="Path_346" data-name="Path 346" d="M578.379,316.556c-.476.238-.909-.423-1-.421-.315.008-.971.7-2,.4a1.529,1.529,0,0,1-.7-1.773c.632-1.008,1.769-.592,2.8-.663.3-1.4-1.164-1.338-2.127-.9a.769.769,0,0,1-.334-.884c1.033-.021,1.89-.616,2.8.217a4.56,4.56,0,0,1,.553.787Zm-.895-1.786h-1.9c-.377.045.059.986.465,1.1a3.094,3.094,0,0,0,1.22-.315c.3-.182.221-.507.216-.788" transform="translate(-445.93 -242.21)" fill="#fff"/>
    <path id="Path_347" data-name="Path 347" d="M458.283,316.033c-.824-1.445-.48-3.775,1.426-4a2.251,2.251,0,0,1,2.361,1.675c.357,2.578-1.673,3.555-3.787,2.328m2.647-2.865c-2.069-.9-2.767.647-1.782,2.336l.791.341,1.127-.453a3.4,3.4,0,0,0-.135-2.225" transform="translate(-355.344 -242.155)" fill="#fff"/>
    <path id="Path_348" data-name="Path 348" d="M480.291,302.771h-.672v-.67l.672,0c-.169-2.1-.009-3.441,2.461-3.124v.893c-.389.021-.579-.262-1.006-.23-.945.069-.443,1.752-.56,2.463h1.566v.669h-1.566v3.572h-.895Z" transform="translate(-372.229 -231.997)" fill="#fff"/>
    <path id="Path_349" data-name="Path 349" d="M412.24,306.115v1.563h1.343v.669H412.24c.121,1.011-.4,2.289.577,2.893l.765-.215.224.894-1.658-.02c-1.206-.807-.715-2.291-.8-3.551l-.672,0v-.669l.672,0v-1.561Z" transform="translate(-318.72 -237.574)" fill="#fff"/>
    <path id="Path_350" data-name="Path 350" d="M376.268,306.115v1.563h1.343v.669h-1.343c.121,1.011-.4,2.289.577,2.893l.765-.215.224.894-1.658-.02c-1.206-.807-.715-2.291-.8-3.551l-.672,0v-.669l.672,0v-1.561Z" transform="translate(-290.803 -237.574)" fill="#fff"/>
    <path id="Path_351" data-name="Path 351" d="M560.124,306.115v1.563h1.343v.669h-1.343c.048,1.465-.506,3.2,1.567,2.9v.669l-1.658-.02c-1.206-.807-.715-2.291-.8-3.551l-.672,0v-.669l.672,0v-1.561Z" transform="translate(-433.492 -237.574)" fill="#fff"/>
    <path id="Path_352" data-name="Path 352" d="M596.531,313.1l.819.2,1.866-.087c.024,1.213-.679.524-.976.576a3.092,3.092,0,0,0-.711.42c-.521.772.669,3.357-1,3.134Z" transform="translate(-462.964 -242.992)" fill="#fff"/>
    <path id="Path_353" data-name="Path 353" d="M621.547,315.071l1.462,1.458-1.57,1.568-1.462-1.458Z" transform="translate(-481.16 -244.524)" fill="#fff"/>
    <path id="Path_354" data-name="Path 354" d="M663.064,299.137v3.572c.569-.015,1.38-.683,1.9-.682.056,0,.976.222,1.094.261a2.946,2.946,0,0,1,1.269,1.872c.036.421-.263.618-.236,1.005h1.79c.116-.094-.373-.4-.426-.579a1.929,1.929,0,0,1,2.077-2.519c.7.152,1.234,1.051,1.446,1.682.046.137.271,1.022.271,1.081,0,.3-.407.77-.235,1.228h-23.6c-.043,0-.416-.393-.78-.221a.67.67,0,0,1-.11.444,4.542,4.542,0,0,1-1.007,1c-.414.34-.818.683-1.249,1l-.769-.552c1.109-.853,2.682-1.467,2.465-3.131-.056-.427-.866-1.653-.116-1.892.47-.15.5.516.6.74a7.315,7.315,0,0,1,.648,1.475l.759.247,12.3-.021a10.771,10.771,0,0,0,.918-1.093c.039-.064.328-.958.328-1.012v-3.907Zm-.9,6.028c.621-.044,1.3.062,1.906,0,.341-.032,1.167-.18,1.533-.256,1.084-.226.995-1.161.147-1.652-1.4-.809-3.025.629-3.586,1.9m7.729-2.223c-.323.1-.573.733-.782,1a3.936,3.936,0,0,0,1.891,1.226l.322-.542c-.263-.534-.59-1.929-1.43-1.68" transform="translate(-500.188 -232.158)" fill="#fff"/>
    <path id="Path_355" data-name="Path 355" d="M798.143,299.135h.895c-.118,1.772.159,3.726,0,5.474-.035.4-.406.9-.228,1.447l-14.437.006-.758-.256-.025-.415a5.271,5.271,0,0,1-2.324.2,5.453,5.453,0,0,1-1.008-1c-.449-1.554,1.779-2.03,2.882-2.334l.011-.663h.892c.067,1.207-.287,2.62.559,3.572h13.536Zm-14.99,4.018-1.793.555-.22.784c.831.245,1.151.613,2.02.119.46-.282-.2-.988-.006-1.458" transform="translate(-605.511 -232.157)" fill="#fff"/>
    <path id="Path_356" data-name="Path 356" d="M868.629,320.112l-.224-.893a4.845,4.845,0,0,0,1.871-.924c.243-.2.455-.236.367-.639-.538.011-2.3-.286-2.445-.8-.469-2.281,2.175-4.1,3.306-1.513,1,2.275-.772,4.155-2.874,4.767m2.237-3.349c.065-1.786-1.442-2.606-2.014-.56.108.4,1.6.647,2.014.56" transform="translate(-673.759 -243.757)" fill="#fff"/>
    <path id="Path_357" data-name="Path 357" d="M887.3,316.072v-.893h2.909a1.967,1.967,0,0,0-.562-1.56c-.2-.257-1.622-1.319-.668-1.566.723-.187,1.957,1.753,2.1,2.374.1.462-.031,1.645-.53,1.645Z" transform="translate(-688.628 -242.172)" fill="#fff"/>
    <rect id="Rectangle_41" data-name="Rectangle 41" width="1.132" height="1.117" transform="translate(170.141 67.648)" fill="#fff"/>
    <path id="Path_358" data-name="Path 358" d="M792.386,301.079c.381,1.452-1.408,1.38-1.118.335.107-.384.789-.367,1.118-.335" transform="translate(-614.073 -233.654)" fill="#fff"/>
    <rect id="Rectangle_42" data-name="Rectangle 42" width="1.013" height="1.117" transform="translate(168.799 67.648)" fill="#fff"/>
    <path id="Path_359" data-name="Path 359" d="M786.451,301.615a.578.578,0,1,1-.578-.577.577.577,0,0,1,.578.577" transform="translate(-609.462 -233.633)" fill="#fff"/>
    <path id="Path_360" data-name="Path 360" d="M0,207.4l1.784.005,4.145,7.139,4.267-7.128,1.662-.016v12.5h-1.79v-8.819c0-.041.387-.429.223-.781-.215-.253-1.032,1.665-1.148,1.868a35.271,35.271,0,0,0-2.437,4.378c-.5-.05-1.362.193-1.677-.214l-3.463-6.033v9.6H0Z" transform="translate(0 -160.964)" fill="#fff"/>
    <path id="Path_361" data-name="Path 361" d="M220.133,229.287v4.577a7.86,7.86,0,0,0,.33.787c.7,1.147,2.45.766,3.25-.117v-5.247h1.566v8.819a3.54,3.54,0,0,1-2.16,2.533,5.9,5.9,0,0,1-3.51,0c-1.271-.465-.715-.918-.594-1.974,1.03.746,3.345,1.12,4.257.118.7-.769.379-1.845.441-2.8-1.466,1.274-4.16,1.182-4.887-.817a9.818,9.818,0,0,1-.263-1.077,31.6,31.6,0,0,1,.015-4.458c.144-.511,1.092-.322,1.555-.346" transform="translate(-169.57 -177.937)" fill="#fff"/>
    <path id="Path_362" data-name="Path 362" d="M77.939,229.506c.12-.444,1.374-.535,1.544.023.062.2-.086.523.134.535,1.139-1.26,3.808-1.321,4.7.218a7.946,7.946,0,0,1,.33.787v5.693H83.085v-5.247a3.974,3.974,0,0,0-.441-.676c-.969-.848-2.45.059-3.139.9v5.023H77.939Z" transform="translate(-60.488 -177.82)" fill="#fff"/>
    <path id="Path_363" data-name="Path 363" d="M135.651,231.184c-.1.108-1.511-.625-1.9-.675-.46-.059-1.766-.112-1.9.351l-.007.989c1.668.662,4.806.51,4.475,3.024-.263,2-2.477,2.276-4.152,2.123a4.426,4.426,0,0,1-2.012-.673c-.253-.359.389-1.133.342-1.568a4.6,4.6,0,0,0,3.439.865c.636-.135,1.082-.6.589-1.2-.718-.872-3.23-.412-4.147-1.89a4.411,4.411,0,0,1-.112-1.689,7.963,7.963,0,0,1,.483-.969c.032-.032.7-.4.789-.441a4.555,4.555,0,0,1,4.325.539Z" transform="translate(-100.973 -177.824)" fill="#fff"/>
    <path id="Path_364" data-name="Path 364" d="M162.991,222.389h-1.119v-1.563h1.119V218.37h1.79v2.456c1.113.052,2.917-.455,2.453,1.22-.166.6-1.87.26-2.453.343.169.9-.273,3.641.1,4.249a1.408,1.408,0,0,0,2.014.439l.567,1.339c-1.373.351-3.158.592-4-.811-.3-.509-.193-.783-.281-1.282-.024-.137-.2-.214-.2-.251Z" transform="translate(-125.628 -169.475)" fill="#fff"/>
    <path id="Path_365" data-name="Path 365" d="M191.849,229.339l1.339,0,.339.89c.846-1.075,2.019-.976,3.244-.668.1.359-.272,1.784-.559,1.784-.966-.826-1.96-.472-2.8.336v5.246h-1.566Z" transform="translate(-148.893 -177.988)" fill="#fff"/>
    <path id="Path_366" data-name="Path 366" d="M117.7,236.872h-1.79v-7.256c0-.469,1.79-.469,1.79,0Z" transform="translate(-89.955 -177.93)" fill="#fff"/>
    <rect id="Rectangle_43" data-name="Rectangle 43" width="1.566" height="7.591" transform="translate(14.095 51.351)" fill="#fff"/>
    <path id="Path_367" data-name="Path 367" d="M63.585,214.426l-.768.253c-1.024-.214-1.231-.836-.9-1.809l.706-.425c1.134.3,1.486.9.966,1.981" transform="translate(-47.94 -164.877)" fill="#fff"/>
    <path id="Path_368" data-name="Path 368" d="M1059.887,187.614l-2.349,2.023a19.568,19.568,0,0,0-2.676-.691c-1.107-.08-2.277.605-3.356.684-1.047.076-1.943-.563-2.913-.681-1.206-.147-2.419.6-3.576.681-1.047.076-1.943-.563-2.913-.681-1.206-.147-2.419.6-3.576.681-1.052.077-1.947-.57-2.913-.681-1.479-.17-2.686.786-4.04.681-1.236-.1-2.236-.858-3.576-.682-.761.1-1.867.791-2.687.682-.593-.079-1.559-1.5-2.119-1.9l2.577.339c2.251-1.206,3.579-.244,5.585,0,1.334.162,2.839-.833,4.036-.678.736.1,1.721.589,2.452.678,1.289.157,2.645-.74,3.814-.682,1.064.053,2.235.766,3.358.685.979-.071,2.186-.732,3.13-.685,1.064.053,2.235.766,3.358.685.979-.071,2.186-.732,3.13-.685,1.061.053,2.243.771,3.358.685.623-.048,1.273-.37,1.893-.453" transform="translate(-794.095 -145.417)" fill="#fff"/>
    <path id="Path_369" data-name="Path 369" d="M1082.935,222.736l-1.45,1.306c-1.2-.622-2.608.338-3.8.484-1.345.164-2.635-.848-4.036-.678-.73.089-1.722.589-2.453.678-1.577.193-3.272-1.276-4.906-.459-.225-.393-1.122-.726-1.251-1-.253-.53.881-.247,1.048-.516,1.743-.818,3.452.611,5.109.409.8-.1,1.839-.64,2.674-.682.911-.045,2.03.575,2.91.682,1.334.162,2.839-.833,4.037-.678.655.085,1.4.559,2.12.451" transform="translate(-826.539 -172.501)" fill="#fff"/>
    <path id="Path_370" data-name="Path 370" d="M1021.774,53.615l-3.464-1.12c-2.121-.018-4.233-.122-6.226.716-.311.131-.738.252-.826.627h8.39c.4,0,1.917,1.632,2.429,1.544,1.1-.529,2.391-.738,3.508-1.2.774-.321,1.444-.832,2.147-1.206a5.957,5.957,0,0,1,1.648-.7c-.973,1.107-2.606,1.507-3.69,2.457l-2.575,5.8-3.019-.681c-.858.1-2.387.917-3.133.917-.829,0-2.389-.92-3.356-.917l-3.133.917-3.139-.9a7.174,7.174,0,0,1-.557-1.676,2.86,2.86,0,0,0-.413-1.374c-3.56-6.7-2.267-14.713-.887-21.812l2.647-9.079.641.811,13.006,22.966Zm-4.251,1.786h-8.39c-.678,0-.132,1.419-.107,1.67.047.469-.04.981,0,1.456l8.5-1.79Zm4.027,0h-3.58l-.224,1.116,2.309-.487Zm-13.2,3.126-.111-1.786c-.486.4-.512,1.045-.783,1.562Z" transform="translate(-779.25 -20.125)" fill="#fff"/>
    <path id="Path_371" data-name="Path 371" d="M1024.642,21.94a1.417,1.417,0,0,0,.254.752c3.849,6.757,8.173,13.534,11.8,20.376a3.791,3.791,0,0,1,.7,2.538l-1.088-1.7-12.111-21.85Z" transform="translate(-794.871 -17.027)" fill="#fff"/>
    <path id="Path_372" data-name="Path 372" d="M1097.958,240.067c-.019.285-.315.369-.518.488-.8.469-1.684.866-2.5,1.311l-2.8-1.687,2.834-.756Z" transform="translate(-847.603 -185.814)" fill="#fff"/>
    <path id="Path_373" data-name="Path 373" d="M1049.135,267.3a2.459,2.459,0,0,1,.81-1.982c1.271-.858,3.352.35,2.329.984-.208.129-.461.106-.686.208-.825.372-1.475.973-2.453.79" transform="translate(-814.218 -205.682)" fill="#fff"/>
    <path id="Path_374" data-name="Path 374" d="M1093.591,137.18l-2.449.57c1.269-1.268,2.22-2.843,3.468-4.13.434.267.205.587.074.966-.3.86-.839,1.714-1.093,2.594" transform="translate(-846.828 -103.702)" fill="#fff"/>
    <path id="Path_375" data-name="Path 375" d="M1013.849,116.667a10.613,10.613,0,0,1-.029,1.422c-.362,1.655-4.087,5.506-5.346,6.944A156.719,156.719,0,0,1,990.8,142.228c-3.648,2.831-7.334,5.665-11.184,8.263l.813.752,3.214,1.7-2.132-.342c-1.813.917-.188,1.566.566,2.463l-5.035-2.872c-1.533.915-3.009,1.916-4.582,2.764-.2.109-.441.615-.675.22.521-.631,1.85-.98,1.551-1.995s-1.579-.412-2.218-.233c-.236.066-.689.341-.675-.116l3.214-1.593.813-.752c-2.66-1.96-5.439-3.785-8.051-5.807a148.036,148.036,0,0,1-22.043-21.093c-1.505-1.773-3.245-3.481-4.142-5.69l.117-1.233c.315.352.7.649,1.013,1,8.632,9.572,19.777,20.423,30.2,27.911,1.782,1.28,3.661,2.436,5.477,3.666,2.68-1.763,5.387-3.51,7.942-5.452,7.075-5.378,13.337-11.7,19.81-17.739ZM970.893,146.36l-8.728-7.253c-1.822-1.336-3.46-2.961-5.141-4.47-.275-.247-.564-.344-.792-.549-.7-.632-1.3-1.392-2.007-2.016-.251-.222-.37-.534-.783-.446,1.178,1.3,2.4,2.609,3.685,3.8,2.976,2.758,6.508,5.661,9.741,8.14a31.271,31.271,0,0,1,2.685,2.01Zm29.309-14.288c-.413-.088-.532.224-.783.446-.629.555-1.161,1.232-1.784,1.792-.228.206-.517.3-.792.55-3.521,3.158-7.031,6.208-10.739,9.153a16.4,16.4,0,0,0-2.906,2.346,2.49,2.49,0,0,0,1.116-.56,14.053,14.053,0,0,1,1.79-1.34c3.547-2.949,7.277-5.682,10.636-8.81,1.207-1.124,2.362-2.35,3.462-3.578" transform="translate(-729.711 -90.544)" fill="#fff"/>
    <path id="Path_376" data-name="Path 376" d="M1070.371,204.7l-1.56,1.457a24.751,24.751,0,0,1-2.8.788c-.671,0-2.516-.983-3.356-.918-.743.058-2.372.917-3.132.918-.815,0-2.5-.984-3.356-.918-.742.057-2.372.917-3.132.918-.815,0-2.5-.984-3.356-.918-.741.057-2.372.917-3.132.918a20.706,20.706,0,0,1-3.244-1.017c-.382-.259-.732-.817-1.118-1.117l1.193-.31c.813.144,2.5.88,3.169.88s2.813-.969,3.319-.88c.814.143,2.5.88,3.169.88s2.813-.969,3.319-.88c.814.143,2.5.88,3.169.88s2.813-.969,3.319-.88c.814.143,2.5.88,3.169.88s2.359-.734,3.169-.88c.231-.042.787.368,1.194.2" transform="translate(-808.829 -158.71)" fill="#fff"/>
    <path id="Path_377" data-name="Path 377" d="M1006.981,301.989l-3.249,1.335c-.358,1.259.191,2.493.562,3.673-.606.866-1.75.892-2.567,1.46-.963-1.24-2.911-3.555-2.543-5.207.182-.817,1.836-1.908,2.574-2.343a41.374,41.374,0,0,1,3.773-1.829,5.832,5.832,0,0,1,1.9,1.031Z" transform="translate(-775.424 -232.112)" fill="#fff"/>
    <path id="Path_378" data-name="Path 378" d="M1173.77,301.975l-.687-1.873a6.077,6.077,0,0,1,1.9-1.025c.235,0,3.753,1.77,4.221,2.053,2.194,1.326,2.764,2.41,1.454,4.74-.165.294-1.414,2.194-1.527,2.272-.555.383-2.044-.428-2.591-.781-.367-.54.188-1.571.309-2.166.1-.5-.03-1,.252-1.506-.16-.579-2.685-1.373-3.331-1.712" transform="translate(-910.422 -232.112)" fill="#fff"/>
    <path id="Path_379" data-name="Path 379" d="M1137.951,274.218c-.1.486-.366.9-.217,1.43.1.362,2.774,1.331,3.343,1.465l-1.119,2.9-3.264-1.553c-1.065.288-.661.922-.539,1.776l-1.436-.465c-.769-.535.234-.754.764-.652.2-1.163-.288-2.056-.448-3.125a3.306,3.306,0,0,0,2.662-1.9.956.956,0,0,1-.424-1c.208-.205,1.78.58,1.789.781Z" transform="translate(-880.431 -211.921)" fill="#fff"/>
    <path id="Path_380" data-name="Path 380" d="M1048.982,273.212c.122.405-.2.687-.233,1-.09.883,1.622,1.954,2.471,1.9-.159,1.069-.644,1.962-.448,3.125.455-.017.826-.092,1.118.336,0,.186-1.218.714-1.458.777-.658.172-.269-.825.107-1l-.771-.758c-.6.107-3.116,1.706-3.467,1.313l-1.122-2.565,3.253-1.442c.322-.473-.026-1.078-.132-1.561l-1.108-.346Z" transform="translate(-811.156 -212.038)" fill="#fff"/>
    <path id="Path_381" data-name="Path 381" d="M1032.65,294.078l1.118,2.567-2.235,1,.44-1.665-1.782-.9a5.5,5.5,0,0,1,2.46-1" transform="translate(-799.523 -228.215)" fill="#fff"/>
    <path id="Path_382" data-name="Path 382" d="M1167.374,295.215a13.911,13.911,0,0,0-1.555.458,5.109,5.109,0,0,0-.194.544c-.006.228.627,1.224.406,1.453l-2.014-.671c-.174-1.086.922-1.836.9-2.9.113-.129,2.361.616,2.461,1.116" transform="translate(-903.372 -228.236)" fill="#fff"/>
    <path id="Path_383" data-name="Path 383" d="M1132.426,304.159c-.712.276-1.263.681-2.1.428-.168-.05-.24-.244-.362-.316-.155-.092-.375-.088-.42-.131a3.655,3.655,0,0,1-.469-1.648l.548-.329,2.7,1.329Z" transform="translate(-876.256 -234.506)" fill="#fff"/>
    <path id="Path_384" data-name="Path 384" d="M1148.458,267.329c-1.259.1-2.2-.841-3.355-1.12l0-.657c.457.038.569-.4,1-.462,1.586-.221,2.415.694,2.356,2.24" transform="translate(-888.706 -205.708)" fill="#fff"/>
    <path id="Path_385" data-name="Path 385" d="M1068.168,302.132c.831.633-.144,2.256-.924,2.426a2.006,2.006,0,0,1-2.1-.753c-.047-.427.278-.443.554-.563.829-.358,1.647-.733,2.466-1.111" transform="translate(-826.65 -234.483)" fill="#fff"/>
    <path id="Path_386" data-name="Path 386" d="M1070.055,282.54c-.349.062-.269-.33-.2-.536.118-.367.547-.668.418-1.128l-1.111-.791,3.464-.894.339.558c-.982.844-2.467,1.505-2.909,2.791" transform="translate(-829.768 -216.678)" fill="#fff"/>
    <path id="Path_387" data-name="Path 387" d="M1126.922,280.249l-1.115.794c-.049.18.348.858.416,1.131.056.225.165.585-.2.53l-.246-.87a26.918,26.918,0,0,1-2.3-1.58c-.229-.168-.111-.4-.359-.564.292-.374.281-.306.67-.223a27.9,27.9,0,0,0,3.133.782" transform="translate(-871.645 -216.842)" fill="#fff"/>
    <path id="Path_388" data-name="Path 388" d="M1160.088,295.06l.261-.967.969-1.935c.531.319.185.908.009,1.348-.076.19-.873,1.975-1.239,1.554" transform="translate(-900.336 -226.742)" fill="#fff"/>
    <path id="Path_389" data-name="Path 389" d="M1043.8,295.06c-.459.086-.531-.207-.711-.518a10.818,10.818,0,0,1-.665-1.569c-.161-.421-.351-.436.146-.815a1.79,1.79,0,0,1,.517.823c.14.318.86,1.913.713,2.079" transform="translate(-808.883 -226.742)" fill="#fff"/>
    <path id="Path_390" data-name="Path 390" d="M1109.965,37.955a30.086,30.086,0,0,1,3.8.223c-.09.459-.637.567-.893.783a12.551,12.551,0,0,1-1.248,1.21c-.472.14-1.094-.3-1.779-.212-.523.069-2.1.705-2.419.648-.84-.147-2.694-.938-3.393-.88-.618.051-2.8.934-3.1.881-.838-.149-2.7-.939-3.393-.881-.849.071-2.136.746-2.943.883-.235.04-.785-.375-1.2-.2l.887-.566a20.679,20.679,0,0,1,5.378-1.444l-.022-23.754L1099,13.4h-.447l.224.893-.783-.67-.112.67c-.462-.021.032-.651-.671-.447l-.006.443-.665-.219.224,1.332c-.456-.014-.673.219-.688.673l-.319-.157a3,3,0,0,0-1.452,1.629l-.9.1.22.665-.413.034-.05.389-1.771.475c.13-.359.137-.867.25-1.2.1-.3.838-.738.823-.913-.05-.6-.175-1.126.714-1.249-.454-.606.815-1.155,1.343-1.339l0-.654-.458.443a1.8,1.8,0,0,0-1.228-.226c-.409.06-.476.37-.687.43-.257.073-.558-.013-.842.053-.453.105-2.113,1.576-2.379,1.31-.1-.508.066-.577.335-.893a4.817,4.817,0,0,1,1.791-1.345c.355-.12.513.082.334-.553-.14-.494-.6-.116-.883-.1l-.235.435-.112-.447a5.13,5.13,0,0,1-2.573,1.339l.226-1.113.656-.022c.053-.058-.018-.192.006-.279.087-.305.445-.021.454-.26-.288-.356-.273-.323-.672-.226-.311.075-.868.471-1.118.226.5-.393.584-1.24,1.344-1.234l-.228-.44c1.076.086,1.683-1.661,2.8-.936l1.448-1.074-1.562.445a.669.669,0,0,0-.218-.566c-.462-.334-2.872.565-3.589.343.221-.174.428-.843.463-.877.061-.058.334.019.5-.053a14.211,14.211,0,0,1,2.536-1.061c.294-.051.881.41,1.087.651l.111-.669h.669l.232.893,1.337-.224c.148-.451-.312-.581-.592-.652-.356-.09-.562.222-.751.106-.646-.4-.185-.758-.224-.793-.263-.087-.461.17-.558.175-.14.006-.425-.283-.679-.33-.449-.084-1.119-.006-1.568-.06-.388-.047-.64-.176-1-.231l.659-.242.023-.412c.553.154,1.059-.22,1.445-.253.327-.028,1.189.14,1.567.161.241.013.575-.169.987.1l.017.425.671-.447.029.42.384.053.706.868,0-1.112c-.869-.142-1.481-.36-1.569-1.336a3.619,3.619,0,0,1-2.009-.787c-.328-.228-.071-.515.115-.561.376-.092.629.235.894.232.2,0,.353-.18.455-.185s1.179.859,1.662.4c-.073.292.517,1.277.679,1.118-.048-.33-.02-.709.337-.225.183.249.041,1.107.447,1.08.144-.01.241-.335.556.148l-.213.55c.675-.147.228.459.663.455.309-.627-.058-.948-.188-1.486-.147-.608-.322-1.055-.453-1.557a18.643,18.643,0,0,1-.253-2.984c.532.2.619.872.784,1.341.136.384.043.536.558.445.1-.775-.34-1.285,0-2.009l.559.669L1099,0c-.066.323.22.5.24.781.035.506-.216,1.458-.165,2,.03.318.072.972.6.788-.569-1.1.308-2.418.45-3.573a.637.637,0,0,0,.893,0c-.035.551.05,1.132,0,1.679-.02.238-.21.423-.232.661-.05.523-.135,1.329.34,1.679l.111-.893h.673c-.541-.652.479-1.374,1.093-1.6l.049-.381c.49-.041.833-.79,1.318-.368l-1.113,1.578.554.989.112-.893.564.189a3.044,3.044,0,0,1,2.455-.857c.065.018.446.33.226.445l-1.454,1,1.342.446-.671.781.895.335-.895.446c.4.63.724.169,1.013.16.1,0,.077.231.887.168a.9.9,0,0,1,1.008.9l-.9.446,2.458.449.014.659.437.232-.895.335.879.358.037.4.425.25c-.3-.04-.5.2-.777.229-.925.1-1.806-.534-2.343.329.267.141.112.538.335.562.318.035.664-.046.984.007-.1.753.918.712,1.107.906.054.054.024.285.131.419.3.379.711.484.563,1.12l-1.118-.447V13.4l-.439-.225-.12.447a7.763,7.763,0,0,0-3.763-1.309l-.824.3,1.207.359a8.015,8.015,0,0,0,1.375.644c.035.7.831.379,1.434.683l.26,1.087.416.035c-.21.331-.2.408.118.654.188,0,.091-.269.219-.449.189-.267,1.233-1.107,1.459-.89-.053.662-.838,1.031-.671,1.786l.467-.419,2.442-.474-1.118,1,.672.112-.22.887.443.117-.447.558c.8-.142,1.849-.225,2.237.67l-.9.447,1.78.234.229.65-.443.009v.446l.672.336c.089.495-.216.33-.558.334a1.847,1.847,0,0,1-1.231-.223l0,.888a1.723,1.723,0,0,1,1.6,1.095c.579-.02.418.215.411.7l-.894-.447-.339.671a10.35,10.35,0,0,0-2.122-.782c-.432-.08-.551-.257-.9.224.182.224.55.049.9.218a3.1,3.1,0,0,1,1.819,1.654l.4.036-.1.882-1.995-1.331-.131-.455-.447.335c1.2.692,1.592,2.006,2.013,3.237-.319.273-2.176-.462-1.563-1.112l-.662-.023-.042-.4c-.554.047-.367-.4-.754-.7l-.581,1.317-1.1.245c.078-.305-.239-.5-.236-.78,0-.3.4-.763.242-1.224.536.079.792-.19,1.113-.563-.473-.692-.68.25-1.118.335l0-.67h-.892Zm-5.817-23.889a2.561,2.561,0,0,1-2.46,0,7.987,7.987,0,0,0-.225,2.8c0,.181.159.33.163.443,0,.142-.284.472-.161.781h1.342c-.393-.463-.1-.669-.078-1.006a1.716,1.716,0,0,1,.08-1l.892,0-.448-.669.418-.024Zm1.343,1.786h-.672l.455,1.554.665.009-.225.669.669,0,.451.667c.3-.921-.542-1.094-.79-1.557s.1-.654-.682-.9Zm-2.238,3.126-1.456-.215a.768.768,0,0,0-.334.884c.7-.337.9.153,1.566.223-.347-.48.047-.48.224-.893m-1.108,1.993-.122-.43-.559.893c.536-.006,1.159.167,1.342-.446Zm-.682,3.589c.624-.057,1.591-.515.783-1.116L1102,23.9c-.68-.117-.568.069-.538.656m7.159,13.4V24.895c-.234-.46-.514-.117-.671-.211l-.447-.348-.009.437-1-.213c-.492.36-.188.353-.137.591.1.471-.639.651-.874.854-.4.348-.434,1.2-1.329,1.017l-.225.781-1.35.327c.272-.328.154-.685.251-.977.1-.311.678-1.046.838-1.4.076-.169-.015-.46.038-.514s1.058.09.886-.678a7.931,7.931,0,0,0-1.207.023c-.109.034-.683.248-.809.3-.276.112-1.033.461-1.1.7l-.016,12.375Z" transform="translate(-843.725)" fill="#fff"/>
    <path id="Path_391" data-name="Path 391" d="M1131.074,68.07l-.447.669.891,0c.656,1.626-.142,2.448-1.775,1.771.166-.49-.373-.794-.409-.993-.009-.051.1-.135.1-.224s-.1-.171-.088-.217a9.865,9.865,0,0,1,.4-.994c.022-.022.535-.217.572-.224.248-.05.429.3.753.208" transform="translate(-876.469 -52.664)" fill="#fff"/>
    <path id="Path_392" data-name="Path 392" d="M1173.916,113.465l.674.006c-.015.4.146,1.433-.337,1.561-.6.158-1.415-.985-1.214-1.659s1.371-.8.876.092" transform="translate(-910.364 -87.569)" fill="#fff"/>
  </g>
</svg>
